<?xml version="1.0" encoding="UTF-8" standalone="no"?>
<!DOCTYPE svg PUBLIC "-//W3C//DTD SVG 1.1//EN"
 "http://www.w3.org/Graphics/SVG/1.1/DTD/svg11.dtd">
<!-- Generated by graphviz version 2.43.0 (0)
 -->
<!-- Title: inheritancee320da2d7f Pages: 1 -->
<svg width="576pt" height="94pt"
 viewBox="0.00 0.00 576.00 94.29" xmlns="http://www.w3.org/2000/svg" xmlns:xlink="http://www.w3.org/1999/xlink">
<g id="graph0" class="graph" transform="scale(1.07 1.07) rotate(0) translate(4 97)">
<title>inheritancee320da2d7f</title>
<!-- DOMMixin -->
<g id="node1" class="node">
<title>DOMMixin</title>
<g id="a_node1"><a xlink:href="../pyGHDL.dom.html#pyGHDL.dom.DOMMixin" xlink:title="DOMMixin" target="_top">
<polygon fill="white" stroke="#1e90ff" points="386,-93 318,-93 318,-74 386,-74 386,-93"/>
<text text-anchor="middle" x="352" y="-81" font-family="Vera Sans, DejaVu Sans, Liberation Sans, Arial, Helvetica, sans" font-size="10.00">DOMMixin</text>
</a>
</g>
</g>
<!-- GenericFunctionInterfaceItem -->
<g id="node5" class="node">
<title>GenericFunctionInterfaceItem</title>
<g id="a_node5"><a xlink:href="../pyGHDL/pyGHDL.dom.InterfaceItem.html#pyGHDL.dom.InterfaceItem.GenericFunctionInterfaceItem" xlink:title="GenericFunctionInterfaceItem" target="_top">
<polygon fill="white" stroke="#1e90ff" points="609,-56 448,-56 448,-37 609,-37 609,-56"/>
<text text-anchor="middle" x="528.5" y="-44" font-family="Vera Sans, DejaVu Sans, Liberation Sans, Arial, Helvetica, sans" font-size="10.00">GenericFunctionInterfaceItem</text>
</a>
</g>
</g>
<!-- DOMMixin&#45;&gt;GenericFunctionInterfaceItem -->
<g id="edge3" class="edge">
<title>DOMMixin&#45;&gt;GenericFunctionInterfaceItem</title>
<path fill="none" stroke="black" stroke-width="0.5" d="M386.23,-76.45C412.03,-70.98 448.22,-63.31 477.51,-57.1"/>
<polygon fill="black" stroke="black" stroke-width="0.5" points="477.99,-58.79 482.52,-56.04 477.27,-55.36 477.99,-58.79"/>
</g>
<!-- DocumentedEntityMixin -->
<g id="node2" class="node">
<title>DocumentedEntityMixin</title>
<g id="a_node2"><a xlink:title="A ``DocumentedEntityMixin`` is a mixin class for all VHDL entities that can have an associated documentation.">
<polygon fill="white" stroke="#1e90ff" points="134,-19 0,-19 0,0 134,0 134,-19"/>
<text text-anchor="middle" x="67" y="-7" font-family="Vera Sans, DejaVu Sans, Liberation Sans, Arial, Helvetica, sans" font-size="10.00">DocumentedEntityMixin</text>
</a>
</g>
</g>
<!-- SubProgramm -->
<g id="node4" class="node">
<title>SubProgramm</title>
<polygon fill="white" stroke="#1e90ff" points="256,-56 170,-56 170,-37 256,-37 256,-56"/>
<text text-anchor="middle" x="213" y="-44" font-family="Vera Sans, DejaVu Sans, Liberation Sans, Arial, Helvetica, sans" font-size="10.00">SubProgramm</text>
</g>
<!-- DocumentedEntityMixin&#45;&gt;SubProgramm -->
<g id="edge10" class="edge">
<title>DocumentedEntityMixin&#45;&gt;SubProgramm</title>
<path fill="none" stroke="black" stroke-width="0.5" d="M105.08,-19.03C124.83,-24.1 149.21,-30.37 169.69,-35.63"/>
<polygon fill="black" stroke="black" stroke-width="0.5" points="169.26,-37.33 174.54,-36.88 170.13,-33.94 169.26,-37.33"/>
</g>
<!-- InterfaceItem -->
<g id="node7" class="node">
<title>InterfaceItem</title>
<g id="a_node7"><a xlink:title="An ``InterfaceItem`` is a base&#45;class for all mixin&#45;classes for all interface items.">
<polygon fill="white" stroke="#1e90ff" points="254.5,-19 171.5,-19 171.5,0 254.5,0 254.5,-19"/>
<text text-anchor="middle" x="213" y="-7" font-family="Vera Sans, DejaVu Sans, Liberation Sans, Arial, Helvetica, sans" font-size="10.00">InterfaceItem</text>
</a>
</g>
</g>
<!-- DocumentedEntityMixin&#45;&gt;InterfaceItem -->
<g id="edge7" class="edge">
<title>DocumentedEntityMixin&#45;&gt;InterfaceItem</title>
<path fill="none" stroke="black" stroke-width="0.5" d="M134.1,-9.5C144.93,-9.5 155.94,-9.5 166.14,-9.5"/>
<polygon fill="black" stroke="black" stroke-width="0.5" points="166.39,-11.25 171.39,-9.5 166.39,-7.75 166.39,-11.25"/>
</g>
<!-- Function -->
<g id="node3" class="node">
<title>Function</title>
<polygon fill="white" stroke="#1e90ff" points="381,-56 323,-56 323,-37 381,-37 381,-56"/>
<text text-anchor="middle" x="352" y="-44" font-family="Vera Sans, DejaVu Sans, Liberation Sans, Arial, Helvetica, sans" font-size="10.00">Function</text>
</g>
<!-- Function&#45;&gt;GenericFunctionInterfaceItem -->
<g id="edge4" class="edge">
<title>Function&#45;&gt;GenericFunctionInterfaceItem</title>
<path fill="none" stroke="black" stroke-width="0.5" d="M381.04,-46.5C397.96,-46.5 420.52,-46.5 442.86,-46.5"/>
<polygon fill="black" stroke="black" stroke-width="0.5" points="442.92,-48.25 447.92,-46.5 442.92,-44.75 442.92,-48.25"/>
</g>
<!-- SubProgramm&#45;&gt;Function -->
<g id="edge1" class="edge">
<title>SubProgramm&#45;&gt;Function</title>
<path fill="none" stroke="black" stroke-width="0.5" d="M256.22,-46.5C276.06,-46.5 299.36,-46.5 317.89,-46.5"/>
<polygon fill="black" stroke="black" stroke-width="0.5" points="317.98,-48.25 322.98,-46.5 317.98,-44.75 317.98,-48.25"/>
</g>
<!-- GenericFunctionInterfaceItem&#45;&gt;GenericFunctionInterfaceItem -->
<g id="edge2" class="edge">
<title>GenericFunctionInterfaceItem&#45;&gt;GenericFunctionInterfaceItem</title>
<path fill="none" stroke="black" stroke-width="0.5" d="M501.37,-56.08C488.18,-64.73 497.22,-74 528.5,-74 555.87,-74 566.22,-66.91 559.53,-59.34"/>
<polygon fill="black" stroke="black" stroke-width="0.5" points="560.59,-57.94 555.63,-56.08 558.35,-60.63 560.59,-57.94"/>
</g>
<!-- GenericInterfaceItem -->
<g id="node6" class="node">
<title>GenericInterfaceItem</title>
<g id="a_node6"><a xlink:title="A ``GenericInterfaceItem`` is a mixin class for all generic interface items.">
<polygon fill="white" stroke="#1e90ff" points="412,-19 292,-19 292,0 412,0 412,-19"/>
<text text-anchor="middle" x="352" y="-7" font-family="Vera Sans, DejaVu Sans, Liberation Sans, Arial, Helvetica, sans" font-size="10.00">GenericInterfaceItem</text>
</a>
</g>
</g>
<!-- GenericInterfaceItem&#45;&gt;GenericFunctionInterfaceItem -->
<g id="edge5" class="edge">
<title>GenericInterfaceItem&#45;&gt;GenericFunctionInterfaceItem</title>
<path fill="none" stroke="black" stroke-width="0.5" d="M397.94,-19.03C422.27,-24.19 452.39,-30.57 477.47,-35.89"/>
<polygon fill="black" stroke="black" stroke-width="0.5" points="477.16,-37.61 482.41,-36.94 477.88,-34.19 477.16,-37.61"/>
</g>
<!-- InterfaceItem&#45;&gt;GenericInterfaceItem -->
<g id="edge6" class="edge">
<title>InterfaceItem&#45;&gt;GenericInterfaceItem</title>
<path fill="none" stroke="black" stroke-width="0.5" d="M254.73,-9.5C264.86,-9.5 275.95,-9.5 286.9,-9.5"/>
<polygon fill="black" stroke="black" stroke-width="0.5" points="286.91,-11.25 291.91,-9.5 286.91,-7.75 286.91,-11.25"/>
</g>
<!-- ModelEntity -->
<g id="node8" class="node">
<title>ModelEntity</title>
<g id="a_node8"><a xlink:title="``ModelEntity`` is the base&#45;class for all classes in the VHDL language model, except for mixin classes (see multiple">
<polygon fill="white" stroke="#1e90ff" points="104.5,-93 29.5,-93 29.5,-74 104.5,-74 104.5,-93"/>
<text text-anchor="middle" x="67" y="-81" font-family="Vera Sans, DejaVu Sans, Liberation Sans, Arial, Helvetica, sans" font-size="10.00">ModelEntity</text>
</a>
</g>
</g>
<!-- ModelEntity&#45;&gt;SubProgramm -->
<g id="edge8" class="edge">
<title>ModelEntity&#45;&gt;SubProgramm</title>
<path fill="none" stroke="black" stroke-width="0.5" d="M104.71,-74.07C124.61,-68.95 149.3,-62.61 169.97,-57.3"/>
<polygon fill="black" stroke="black" stroke-width="0.5" points="170.45,-58.98 174.86,-56.04 169.58,-55.59 170.45,-58.98"/>
</g>
<!-- NamedEntityMixin -->
<g id="node9" class="node">
<title>NamedEntityMixin</title>
<g id="a_node9"><a xlink:title="A ``NamedEntityMixin`` is a mixin class for all VHDL entities that have identifiers.">
<polygon fill="white" stroke="#1e90ff" points="120.5,-56 13.5,-56 13.5,-37 120.5,-37 120.5,-56"/>
<text text-anchor="middle" x="67" y="-44" font-family="Vera Sans, DejaVu Sans, Liberation Sans, Arial, Helvetica, sans" font-size="10.00">NamedEntityMixin</text>
</a>
</g>
</g>
<!-- NamedEntityMixin&#45;&gt;SubProgramm -->
<g id="edge9" class="edge">
<title>NamedEntityMixin&#45;&gt;SubProgramm</title>
<path fill="none" stroke="black" stroke-width="0.5" d="M120.8,-46.5C135.1,-46.5 150.49,-46.5 164.48,-46.5"/>
<polygon fill="black" stroke="black" stroke-width="0.5" points="164.56,-48.25 169.56,-46.5 164.56,-44.75 164.56,-48.25"/>
</g>
</g>
</svg>
