<?xml version="1.0" encoding="UTF-8" standalone="no"?>
<!DOCTYPE svg PUBLIC "-//W3C//DTD SVG 1.1//EN"
 "http://www.w3.org/Graphics/SVG/1.1/DTD/svg11.dtd">
<!-- Generated by graphviz version 2.43.0 (0)
 -->
<!-- Title: inheritancedfc13750a8 Pages: 1 -->
<svg width="529pt" height="101pt"
 viewBox="0.00 0.00 529.00 101.00" xmlns="http://www.w3.org/2000/svg" xmlns:xlink="http://www.w3.org/1999/xlink">
<g id="graph0" class="graph" transform="scale(1 1) rotate(0) translate(4 97)">
<title>inheritancedfc13750a8</title>
<!-- ConstrainedCompositeSubtypeSymbol -->
<g id="node1" class="node">
<title>ConstrainedCompositeSubtypeSymbol</title>
<g id="a_node1"><a xlink:href="../pyGHDL/pyGHDL.dom.Symbol.html#pyGHDL.dom.Symbol.ConstrainedCompositeSubtypeSymbol" xlink:title="A configuration reference in a configuration instantiation." target="_top">
<polygon fill="white" stroke="#1e90ff" points="521,-56 317,-56 317,-37 521,-37 521,-56"/>
<text text-anchor="middle" x="419" y="-44" font-family="Vera Sans, DejaVu Sans, Liberation Sans, Arial, Helvetica, sans" font-size="10.00">ConstrainedCompositeSubtypeSymbol</text>
</a>
</g>
</g>
<!-- ConstrainedCompositeSubtypeSymbol&#45;&gt;ConstrainedCompositeSubtypeSymbol -->
<g id="edge1" class="edge">
<title>ConstrainedCompositeSubtypeSymbol&#45;&gt;ConstrainedCompositeSubtypeSymbol</title>
<path fill="none" stroke="black" stroke-width="0.5" d="M391.57,-56.08C378.22,-64.73 387.36,-74 419,-74 446.68,-74 457.14,-66.91 450.39,-59.34"/>
<polygon fill="black" stroke="black" stroke-width="0.5" points="451.41,-57.91 446.43,-56.08 449.18,-60.61 451.41,-57.91"/>
</g>
<!-- DOMMixin -->
<g id="node2" class="node">
<title>DOMMixin</title>
<g id="a_node2"><a xlink:href="../pyGHDL.dom.html#pyGHDL.dom.DOMMixin" xlink:title="DOMMixin" target="_top">
<polygon fill="white" stroke="#1e90ff" points="275,-93 207,-93 207,-74 275,-74 275,-93"/>
<text text-anchor="middle" x="241" y="-81" font-family="Vera Sans, DejaVu Sans, Liberation Sans, Arial, Helvetica, sans" font-size="10.00">DOMMixin</text>
</a>
</g>
</g>
<!-- DOMMixin&#45;&gt;ConstrainedCompositeSubtypeSymbol -->
<g id="edge2" class="edge">
<title>DOMMixin&#45;&gt;ConstrainedCompositeSubtypeSymbol</title>
<path fill="none" stroke="black" stroke-width="0.5" d="M275.1,-76.54C301.18,-71.06 337.96,-63.33 367.67,-57.08"/>
<polygon fill="black" stroke="black" stroke-width="0.5" points="368.22,-58.75 372.76,-56.01 367.5,-55.33 368.22,-58.75"/>
</g>
<!-- SimpleName -->
<g id="node3" class="node">
<title>SimpleName</title>
<g id="a_node3"><a xlink:title="A *simple name* is a name made from a single word.">
<polygon fill="white" stroke="#1e90ff" points="281,-56 201,-56 201,-37 281,-37 281,-56"/>
<text text-anchor="middle" x="241" y="-44" font-family="Vera Sans, DejaVu Sans, Liberation Sans, Arial, Helvetica, sans" font-size="10.00">SimpleName</text>
</a>
</g>
</g>
<!-- SimpleName&#45;&gt;ConstrainedCompositeSubtypeSymbol -->
<g id="edge3" class="edge">
<title>SimpleName&#45;&gt;ConstrainedCompositeSubtypeSymbol</title>
<path fill="none" stroke="black" stroke-width="0.5" d="M281.06,-46.5C290.46,-46.5 300.95,-46.5 311.82,-46.5"/>
<polygon fill="black" stroke="black" stroke-width="0.5" points="311.84,-48.25 316.84,-46.5 311.84,-44.75 311.84,-48.25"/>
</g>
<!-- Symbol -->
<g id="node4" class="node">
<title>Symbol</title>
<polygon fill="white" stroke="#1e90ff" points="268,-19 214,-19 214,0 268,0 268,-19"/>
<text text-anchor="middle" x="241" y="-7" font-family="Vera Sans, DejaVu Sans, Liberation Sans, Arial, Helvetica, sans" font-size="10.00">Symbol</text>
</g>
<!-- Symbol&#45;&gt;ConstrainedCompositeSubtypeSymbol -->
<g id="edge4" class="edge">
<title>Symbol&#45;&gt;ConstrainedCompositeSubtypeSymbol</title>
<path fill="none" stroke="black" stroke-width="0.5" d="M268.35,-15.04C294.47,-20.53 335.16,-29.09 367.53,-35.89"/>
<polygon fill="black" stroke="black" stroke-width="0.5" points="367.39,-37.65 372.64,-36.97 368.11,-34.22 367.39,-37.65"/>
</g>
<!-- ModelEntity -->
<g id="node5" class="node">
<title>ModelEntity</title>
<g id="a_node5"><a xlink:title="``ModelEntity`` is the base&#45;class for all classes in the VHDL language model, except for mixin classes (see multiple">
<polygon fill="white" stroke="#1e90ff" points="75,-56 0,-56 0,-37 75,-37 75,-56"/>
<text text-anchor="middle" x="37.5" y="-44" font-family="Vera Sans, DejaVu Sans, Liberation Sans, Arial, Helvetica, sans" font-size="10.00">ModelEntity</text>
</a>
</g>
</g>
<!-- Name -->
<g id="node6" class="node">
<title>Name</title>
<g id="a_node6"><a xlink:title="``Name`` is the base&#45;class for all *names* in the VHDL language model.">
<polygon fill="white" stroke="#1e90ff" points="165,-56 111,-56 111,-37 165,-37 165,-56"/>
<text text-anchor="middle" x="138" y="-44" font-family="Vera Sans, DejaVu Sans, Liberation Sans, Arial, Helvetica, sans" font-size="10.00">Name</text>
</a>
</g>
</g>
<!-- ModelEntity&#45;&gt;Name -->
<g id="edge5" class="edge">
<title>ModelEntity&#45;&gt;Name</title>
<path fill="none" stroke="black" stroke-width="0.5" d="M75.18,-46.5C85.15,-46.5 95.85,-46.5 105.51,-46.5"/>
<polygon fill="black" stroke="black" stroke-width="0.5" points="105.75,-48.25 110.75,-46.5 105.75,-44.75 105.75,-48.25"/>
</g>
<!-- Name&#45;&gt;SimpleName -->
<g id="edge6" class="edge">
<title>Name&#45;&gt;SimpleName</title>
<path fill="none" stroke="black" stroke-width="0.5" d="M165.01,-46.5C174.35,-46.5 185.17,-46.5 195.63,-46.5"/>
<polygon fill="black" stroke="black" stroke-width="0.5" points="195.73,-48.25 200.73,-46.5 195.73,-44.75 195.73,-48.25"/>
</g>
</g>
</svg>
