<?xml version="1.0" encoding="UTF-8" standalone="no"?>
<!DOCTYPE svg PUBLIC "-//W3C//DTD SVG 1.1//EN"
 "http://www.w3.org/Graphics/SVG/1.1/DTD/svg11.dtd">
<!-- Generated by graphviz version 2.43.0 (0)
 -->
<!-- Title: inheritance0630be94b2 Pages: 1 -->
<svg width="576pt" height="127pt"
 viewBox="0.00 0.00 576.00 127.18" xmlns="http://www.w3.org/2000/svg" xmlns:xlink="http://www.w3.org/1999/xlink">
<g id="graph0" class="graph" transform="scale(1.09 1.09) rotate(0) translate(4 134)">
<title>inheritance0630be94b2</title>
<!-- DOMMixin -->
<g id="node1" class="node">
<title>DOMMixin</title>
<g id="a_node1"><a xlink:href="../pyGHDL.dom.html#pyGHDL.dom.DOMMixin" xlink:title="DOMMixin" target="_top">
<polygon fill="white" stroke="#1e90ff" points="386,-130 318,-130 318,-111 386,-111 386,-130"/>
<text text-anchor="middle" x="352" y="-118" font-family="Vera Sans, DejaVu Sans, Liberation Sans, Arial, Helvetica, sans" font-size="10.00">DOMMixin</text>
</a>
</g>
</g>
<!-- GenericProcedureInterfaceItem -->
<g id="node5" class="node">
<title>GenericProcedureInterfaceItem</title>
<g id="a_node5"><a xlink:href="../pyGHDL/pyGHDL.dom.InterfaceItem.html#pyGHDL.dom.InterfaceItem.GenericProcedureInterfaceItem" xlink:title="GenericProcedureInterfaceItem" target="_top">
<polygon fill="white" stroke="#1e90ff" points="617,-93 448,-93 448,-74 617,-74 617,-93"/>
<text text-anchor="middle" x="532.5" y="-81" font-family="Vera Sans, DejaVu Sans, Liberation Sans, Arial, Helvetica, sans" font-size="10.00">GenericProcedureInterfaceItem</text>
</a>
</g>
</g>
<!-- DOMMixin&#45;&gt;GenericProcedureInterfaceItem -->
<g id="edge3" class="edge">
<title>DOMMixin&#45;&gt;GenericProcedureInterfaceItem</title>
<path fill="none" stroke="black" stroke-width="0.5" d="M386.16,-113.63C412.56,-108.15 449.97,-100.4 480.22,-94.13"/>
<polygon fill="black" stroke="black" stroke-width="0.5" points="480.86,-95.78 485.4,-93.06 480.15,-92.36 480.86,-95.78"/>
</g>
<!-- DocumentedEntityMixin -->
<g id="node2" class="node">
<title>DocumentedEntityMixin</title>
<g id="a_node2"><a xlink:title="A ``DocumentedEntityMixin`` is a mixin class for all VHDL entities that can have an associated documentation.">
<polygon fill="white" stroke="#1e90ff" points="134,-93 0,-93 0,-74 134,-74 134,-93"/>
<text text-anchor="middle" x="67" y="-81" font-family="Vera Sans, DejaVu Sans, Liberation Sans, Arial, Helvetica, sans" font-size="10.00">DocumentedEntityMixin</text>
</a>
</g>
</g>
<!-- InterfaceItem -->
<g id="node4" class="node">
<title>InterfaceItem</title>
<g id="a_node4"><a xlink:title="An ``InterfaceItem`` is a base&#45;class for all mixin&#45;classes for all interface items.">
<polygon fill="white" stroke="#1e90ff" points="254.5,-93 171.5,-93 171.5,-74 254.5,-74 254.5,-93"/>
<text text-anchor="middle" x="213" y="-81" font-family="Vera Sans, DejaVu Sans, Liberation Sans, Arial, Helvetica, sans" font-size="10.00">InterfaceItem</text>
</a>
</g>
</g>
<!-- DocumentedEntityMixin&#45;&gt;InterfaceItem -->
<g id="edge6" class="edge">
<title>DocumentedEntityMixin&#45;&gt;InterfaceItem</title>
<path fill="none" stroke="black" stroke-width="0.5" d="M134.1,-83.5C144.93,-83.5 155.94,-83.5 166.14,-83.5"/>
<polygon fill="black" stroke="black" stroke-width="0.5" points="166.39,-85.25 171.39,-83.5 166.39,-81.75 166.39,-85.25"/>
</g>
<!-- SubProgramm -->
<g id="node9" class="node">
<title>SubProgramm</title>
<polygon fill="white" stroke="#1e90ff" points="256,-56 170,-56 170,-37 256,-37 256,-56"/>
<text text-anchor="middle" x="213" y="-44" font-family="Vera Sans, DejaVu Sans, Liberation Sans, Arial, Helvetica, sans" font-size="10.00">SubProgramm</text>
</g>
<!-- DocumentedEntityMixin&#45;&gt;SubProgramm -->
<g id="edge10" class="edge">
<title>DocumentedEntityMixin&#45;&gt;SubProgramm</title>
<path fill="none" stroke="black" stroke-width="0.5" d="M105.08,-73.97C124.83,-68.9 149.21,-62.63 169.69,-57.37"/>
<polygon fill="black" stroke="black" stroke-width="0.5" points="170.13,-59.06 174.54,-56.12 169.26,-55.67 170.13,-59.06"/>
</g>
<!-- GenericInterfaceItem -->
<g id="node3" class="node">
<title>GenericInterfaceItem</title>
<g id="a_node3"><a xlink:title="A ``GenericInterfaceItem`` is a mixin class for all generic interface items.">
<polygon fill="white" stroke="#1e90ff" points="412,-93 292,-93 292,-74 412,-74 412,-93"/>
<text text-anchor="middle" x="352" y="-81" font-family="Vera Sans, DejaVu Sans, Liberation Sans, Arial, Helvetica, sans" font-size="10.00">GenericInterfaceItem</text>
</a>
</g>
</g>
<!-- GenericInterfaceItem&#45;&gt;GenericProcedureInterfaceItem -->
<g id="edge5" class="edge">
<title>GenericInterfaceItem&#45;&gt;GenericProcedureInterfaceItem</title>
<path fill="none" stroke="black" stroke-width="0.5" d="M412.44,-83.5C422.2,-83.5 432.5,-83.5 442.79,-83.5"/>
<polygon fill="black" stroke="black" stroke-width="0.5" points="442.84,-85.25 447.84,-83.5 442.84,-81.75 442.84,-85.25"/>
</g>
<!-- InterfaceItem&#45;&gt;GenericInterfaceItem -->
<g id="edge1" class="edge">
<title>InterfaceItem&#45;&gt;GenericInterfaceItem</title>
<path fill="none" stroke="black" stroke-width="0.5" d="M254.73,-83.5C264.86,-83.5 275.95,-83.5 286.9,-83.5"/>
<polygon fill="black" stroke="black" stroke-width="0.5" points="286.91,-85.25 291.91,-83.5 286.91,-81.75 286.91,-85.25"/>
</g>
<!-- GenericProcedureInterfaceItem&#45;&gt;GenericProcedureInterfaceItem -->
<g id="edge2" class="edge">
<title>GenericProcedureInterfaceItem&#45;&gt;GenericProcedureInterfaceItem</title>
<path fill="none" stroke="black" stroke-width="0.5" d="M504.76,-93.08C491.26,-101.73 500.51,-111 532.5,-111 560.49,-111 571.07,-103.91 564.24,-96.34"/>
<polygon fill="black" stroke="black" stroke-width="0.5" points="565.23,-94.88 560.24,-93.08 563.02,-97.6 565.23,-94.88"/>
</g>
<!-- Procedure -->
<g id="node6" class="node">
<title>Procedure</title>
<polygon fill="white" stroke="#1e90ff" points="384.5,-56 319.5,-56 319.5,-37 384.5,-37 384.5,-56"/>
<text text-anchor="middle" x="352" y="-44" font-family="Vera Sans, DejaVu Sans, Liberation Sans, Arial, Helvetica, sans" font-size="10.00">Procedure</text>
</g>
<!-- Procedure&#45;&gt;GenericProcedureInterfaceItem -->
<g id="edge4" class="edge">
<title>Procedure&#45;&gt;GenericProcedureInterfaceItem</title>
<path fill="none" stroke="black" stroke-width="0.5" d="M384.5,-53.03C411.1,-58.54 449.7,-66.54 480.67,-72.96"/>
<polygon fill="black" stroke="black" stroke-width="0.5" points="480.32,-74.68 485.57,-73.98 481.03,-71.25 480.32,-74.68"/>
</g>
<!-- ModelEntity -->
<g id="node7" class="node">
<title>ModelEntity</title>
<g id="a_node7"><a xlink:title="``ModelEntity`` is the base&#45;class for all classes in the VHDL language model, except for mixin classes (see multiple">
<polygon fill="white" stroke="#1e90ff" points="104.5,-56 29.5,-56 29.5,-37 104.5,-37 104.5,-56"/>
<text text-anchor="middle" x="67" y="-44" font-family="Vera Sans, DejaVu Sans, Liberation Sans, Arial, Helvetica, sans" font-size="10.00">ModelEntity</text>
</a>
</g>
</g>
<!-- ModelEntity&#45;&gt;SubProgramm -->
<g id="edge8" class="edge">
<title>ModelEntity&#45;&gt;SubProgramm</title>
<path fill="none" stroke="black" stroke-width="0.5" d="M104.71,-46.5C122.84,-46.5 144.93,-46.5 164.35,-46.5"/>
<polygon fill="black" stroke="black" stroke-width="0.5" points="164.75,-48.25 169.75,-46.5 164.75,-44.75 164.75,-48.25"/>
</g>
<!-- NamedEntityMixin -->
<g id="node8" class="node">
<title>NamedEntityMixin</title>
<g id="a_node8"><a xlink:title="A ``NamedEntityMixin`` is a mixin class for all VHDL entities that have identifiers.">
<polygon fill="white" stroke="#1e90ff" points="120.5,-19 13.5,-19 13.5,0 120.5,0 120.5,-19"/>
<text text-anchor="middle" x="67" y="-7" font-family="Vera Sans, DejaVu Sans, Liberation Sans, Arial, Helvetica, sans" font-size="10.00">NamedEntityMixin</text>
</a>
</g>
</g>
<!-- NamedEntityMixin&#45;&gt;SubProgramm -->
<g id="edge9" class="edge">
<title>NamedEntityMixin&#45;&gt;SubProgramm</title>
<path fill="none" stroke="black" stroke-width="0.5" d="M105.08,-19.03C124.83,-24.1 149.21,-30.37 169.69,-35.63"/>
<polygon fill="black" stroke="black" stroke-width="0.5" points="169.26,-37.33 174.54,-36.88 170.13,-33.94 169.26,-37.33"/>
</g>
<!-- SubProgramm&#45;&gt;Procedure -->
<g id="edge7" class="edge">
<title>SubProgramm&#45;&gt;Procedure</title>
<path fill="none" stroke="black" stroke-width="0.5" d="M256.22,-46.5C274.6,-46.5 295.96,-46.5 313.75,-46.5"/>
<polygon fill="black" stroke="black" stroke-width="0.5" points="314.14,-48.25 319.14,-46.5 314.14,-44.75 314.14,-48.25"/>
</g>
</g>
</svg>
