<?xml version="1.0" encoding="UTF-8" standalone="no"?>
<!DOCTYPE svg PUBLIC "-//W3C//DTD SVG 1.1//EN"
 "http://www.w3.org/Graphics/SVG/1.1/DTD/svg11.dtd">
<!-- Generated by graphviz version 2.43.0 (0)
 -->
<!-- Title: inheritance8a20b739ef Pages: 1 -->
<svg width="336pt" height="101pt"
 viewBox="0.00 0.00 336.00 101.00" xmlns="http://www.w3.org/2000/svg" xmlns:xlink="http://www.w3.org/1999/xlink">
<g id="graph0" class="graph" transform="scale(1 1) rotate(0) translate(4 97)">
<title>inheritance8a20b739ef</title>
<!-- ArchitectureSymbol -->
<g id="node1" class="node">
<title>ArchitectureSymbol</title>
<g id="a_node1"><a xlink:href="../pyGHDL/pyGHDL.dom.Symbol.html#pyGHDL.dom.Symbol.ArchitectureSymbol" xlink:title="An entity reference in an entity instantiation with architecture name." target="_top">
<polygon fill="white" stroke="#1e90ff" points="328,-56 215,-56 215,-37 328,-37 328,-56"/>
<text text-anchor="middle" x="271.5" y="-44" font-family="Vera Sans, DejaVu Sans, Liberation Sans, Arial, Helvetica, sans" font-size="10.00">ArchitectureSymbol</text>
</a>
</g>
</g>
<!-- ArchitectureSymbol&#45;&gt;ArchitectureSymbol -->
<g id="edge1" class="edge">
<title>ArchitectureSymbol&#45;&gt;ArchitectureSymbol</title>
<path fill="none" stroke="black" stroke-width="0.5" d="M252.08,-56.08C242.63,-64.73 249.11,-74 271.5,-74 290.4,-74 297.96,-67.4 294.18,-60.15"/>
<polygon fill="black" stroke="black" stroke-width="0.5" points="295.42,-58.89 290.92,-56.08 292.69,-61.08 295.42,-58.89"/>
</g>
<!-- DOMMixin -->
<g id="node2" class="node">
<title>DOMMixin</title>
<g id="a_node2"><a xlink:href="../pyGHDL.dom.html#pyGHDL.dom.DOMMixin" xlink:title="DOMMixin" target="_top">
<polygon fill="white" stroke="#1e90ff" points="179,-93 111,-93 111,-74 179,-74 179,-93"/>
<text text-anchor="middle" x="145" y="-81" font-family="Vera Sans, DejaVu Sans, Liberation Sans, Arial, Helvetica, sans" font-size="10.00">DOMMixin</text>
</a>
</g>
</g>
<!-- DOMMixin&#45;&gt;ArchitectureSymbol -->
<g id="edge2" class="edge">
<title>DOMMixin&#45;&gt;ArchitectureSymbol</title>
<path fill="none" stroke="black" stroke-width="0.5" d="M178.06,-73.97C194.92,-68.96 215.68,-62.79 233.25,-57.57"/>
<polygon fill="black" stroke="black" stroke-width="0.5" points="233.82,-59.23 238.11,-56.12 232.82,-55.87 233.82,-59.23"/>
</g>
<!-- Name -->
<g id="node3" class="node">
<title>Name</title>
<g id="a_node3"><a xlink:title="``Name`` is the base&#45;class for all *names* in the VHDL language model.">
<polygon fill="white" stroke="#1e90ff" points="172,-56 118,-56 118,-37 172,-37 172,-56"/>
<text text-anchor="middle" x="145" y="-44" font-family="Vera Sans, DejaVu Sans, Liberation Sans, Arial, Helvetica, sans" font-size="10.00">Name</text>
</a>
</g>
</g>
<!-- Name&#45;&gt;ArchitectureSymbol -->
<g id="edge3" class="edge">
<title>Name&#45;&gt;ArchitectureSymbol</title>
<path fill="none" stroke="black" stroke-width="0.5" d="M172.1,-46.5C183.12,-46.5 196.44,-46.5 209.68,-46.5"/>
<polygon fill="black" stroke="black" stroke-width="0.5" points="209.95,-48.25 214.95,-46.5 209.95,-44.75 209.95,-48.25"/>
</g>
<!-- Symbol -->
<g id="node4" class="node">
<title>Symbol</title>
<polygon fill="white" stroke="#1e90ff" points="172,-19 118,-19 118,0 172,0 172,-19"/>
<text text-anchor="middle" x="145" y="-7" font-family="Vera Sans, DejaVu Sans, Liberation Sans, Arial, Helvetica, sans" font-size="10.00">Symbol</text>
</g>
<!-- Symbol&#45;&gt;ArchitectureSymbol -->
<g id="edge4" class="edge">
<title>Symbol&#45;&gt;ArchitectureSymbol</title>
<path fill="none" stroke="black" stroke-width="0.5" d="M172.1,-17.26C189.85,-22.53 213.59,-29.59 233.31,-35.45"/>
<polygon fill="black" stroke="black" stroke-width="0.5" points="232.94,-37.16 238.23,-36.91 233.94,-33.81 232.94,-37.16"/>
</g>
<!-- ModelEntity -->
<g id="node5" class="node">
<title>ModelEntity</title>
<g id="a_node5"><a xlink:title="``ModelEntity`` is the base&#45;class for all classes in the VHDL language model, except for mixin classes (see multiple">
<polygon fill="white" stroke="#1e90ff" points="75,-56 0,-56 0,-37 75,-37 75,-56"/>
<text text-anchor="middle" x="37.5" y="-44" font-family="Vera Sans, DejaVu Sans, Liberation Sans, Arial, Helvetica, sans" font-size="10.00">ModelEntity</text>
</a>
</g>
</g>
<!-- ModelEntity&#45;&gt;Name -->
<g id="edge5" class="edge">
<title>ModelEntity&#45;&gt;Name</title>
<path fill="none" stroke="black" stroke-width="0.5" d="M75.1,-46.5C87.28,-46.5 100.73,-46.5 112.49,-46.5"/>
<polygon fill="black" stroke="black" stroke-width="0.5" points="112.77,-48.25 117.77,-46.5 112.77,-44.75 112.77,-48.25"/>
</g>
</g>
</svg>
