<?xml version="1.0" encoding="UTF-8" standalone="no"?>
<!DOCTYPE svg PUBLIC "-//W3C//DTD SVG 1.1//EN"
 "http://www.w3.org/Graphics/SVG/1.1/DTD/svg11.dtd">
<!-- Generated by graphviz version 2.43.0 (0)
 -->
<!-- Title: inheritance22eb519fbf Pages: 1 -->
<svg width="418pt" height="101pt"
 viewBox="0.00 0.00 418.00 101.00" xmlns="http://www.w3.org/2000/svg" xmlns:xlink="http://www.w3.org/1999/xlink">
<g id="graph0" class="graph" transform="scale(1 1) rotate(0) translate(4 97)">
<title>inheritance22eb519fbf</title>
<!-- DOMMixin -->
<g id="node1" class="node">
<title>DOMMixin</title>
<g id="a_node1"><a xlink:href="../pyGHDL.dom.html#pyGHDL.dom.DOMMixin" xlink:title="DOMMixin" target="_top">
<polygon fill="white" stroke="#1e90ff" points="275,-93 207,-93 207,-74 275,-74 275,-93"/>
<text text-anchor="middle" x="241" y="-81" font-family="Vera Sans, DejaVu Sans, Liberation Sans, Arial, Helvetica, sans" font-size="10.00">DOMMixin</text>
</a>
</g>
</g>
<!-- PackageSymbol -->
<g id="node4" class="node">
<title>PackageSymbol</title>
<g id="a_node4"><a xlink:href="../pyGHDL/pyGHDL.dom.Symbol.html#pyGHDL.dom.Symbol.PackageSymbol" xlink:title="A package reference in a package body declaration." target="_top">
<polygon fill="white" stroke="#1e90ff" points="410,-56 317,-56 317,-37 410,-37 410,-56"/>
<text text-anchor="middle" x="363.5" y="-44" font-family="Vera Sans, DejaVu Sans, Liberation Sans, Arial, Helvetica, sans" font-size="10.00">PackageSymbol</text>
</a>
</g>
</g>
<!-- DOMMixin&#45;&gt;PackageSymbol -->
<g id="edge3" class="edge">
<title>DOMMixin&#45;&gt;PackageSymbol</title>
<path fill="none" stroke="black" stroke-width="0.5" d="M273.03,-73.97C289.21,-69 309.1,-62.9 326.01,-57.7"/>
<polygon fill="black" stroke="black" stroke-width="0.5" points="326.89,-59.27 331.15,-56.12 325.86,-55.92 326.89,-59.27"/>
</g>
<!-- ModelEntity -->
<g id="node2" class="node">
<title>ModelEntity</title>
<g id="a_node2"><a xlink:title="``ModelEntity`` is the base&#45;class for all classes in the VHDL language model, except for mixin classes (see multiple">
<polygon fill="white" stroke="#1e90ff" points="75,-56 0,-56 0,-37 75,-37 75,-56"/>
<text text-anchor="middle" x="37.5" y="-44" font-family="Vera Sans, DejaVu Sans, Liberation Sans, Arial, Helvetica, sans" font-size="10.00">ModelEntity</text>
</a>
</g>
</g>
<!-- Name -->
<g id="node3" class="node">
<title>Name</title>
<g id="a_node3"><a xlink:title="``Name`` is the base&#45;class for all *names* in the VHDL language model.">
<polygon fill="white" stroke="#1e90ff" points="165,-56 111,-56 111,-37 165,-37 165,-56"/>
<text text-anchor="middle" x="138" y="-44" font-family="Vera Sans, DejaVu Sans, Liberation Sans, Arial, Helvetica, sans" font-size="10.00">Name</text>
</a>
</g>
</g>
<!-- ModelEntity&#45;&gt;Name -->
<g id="edge1" class="edge">
<title>ModelEntity&#45;&gt;Name</title>
<path fill="none" stroke="black" stroke-width="0.5" d="M75.18,-46.5C85.15,-46.5 95.85,-46.5 105.51,-46.5"/>
<polygon fill="black" stroke="black" stroke-width="0.5" points="105.75,-48.25 110.75,-46.5 105.75,-44.75 105.75,-48.25"/>
</g>
<!-- SimpleName -->
<g id="node5" class="node">
<title>SimpleName</title>
<g id="a_node5"><a xlink:title="A *simple name* is a name made from a single word.">
<polygon fill="white" stroke="#1e90ff" points="281,-56 201,-56 201,-37 281,-37 281,-56"/>
<text text-anchor="middle" x="241" y="-44" font-family="Vera Sans, DejaVu Sans, Liberation Sans, Arial, Helvetica, sans" font-size="10.00">SimpleName</text>
</a>
</g>
</g>
<!-- Name&#45;&gt;SimpleName -->
<g id="edge6" class="edge">
<title>Name&#45;&gt;SimpleName</title>
<path fill="none" stroke="black" stroke-width="0.5" d="M165.01,-46.5C174.35,-46.5 185.17,-46.5 195.63,-46.5"/>
<polygon fill="black" stroke="black" stroke-width="0.5" points="195.73,-48.25 200.73,-46.5 195.73,-44.75 195.73,-48.25"/>
</g>
<!-- PackageSymbol&#45;&gt;PackageSymbol -->
<g id="edge2" class="edge">
<title>PackageSymbol&#45;&gt;PackageSymbol</title>
<path fill="none" stroke="black" stroke-width="0.5" d="M344.7,-56.08C335.55,-64.73 341.82,-74 363.5,-74 381.8,-74 389.12,-67.4 385.46,-60.15"/>
<polygon fill="black" stroke="black" stroke-width="0.5" points="386.75,-58.96 382.3,-56.08 383.99,-61.1 386.75,-58.96"/>
</g>
<!-- SimpleName&#45;&gt;PackageSymbol -->
<g id="edge4" class="edge">
<title>SimpleName&#45;&gt;PackageSymbol</title>
<path fill="none" stroke="black" stroke-width="0.5" d="M281.12,-46.5C290.93,-46.5 301.58,-46.5 311.86,-46.5"/>
<polygon fill="black" stroke="black" stroke-width="0.5" points="311.87,-48.25 316.87,-46.5 311.87,-44.75 311.87,-48.25"/>
</g>
<!-- Symbol -->
<g id="node6" class="node">
<title>Symbol</title>
<polygon fill="white" stroke="#1e90ff" points="268,-19 214,-19 214,0 268,0 268,-19"/>
<text text-anchor="middle" x="241" y="-7" font-family="Vera Sans, DejaVu Sans, Liberation Sans, Arial, Helvetica, sans" font-size="10.00">Symbol</text>
</g>
<!-- Symbol&#45;&gt;PackageSymbol -->
<g id="edge5" class="edge">
<title>Symbol&#45;&gt;PackageSymbol</title>
<path fill="none" stroke="black" stroke-width="0.5" d="M268.15,-17.53C285.1,-22.73 307.43,-29.59 326.11,-35.33"/>
<polygon fill="black" stroke="black" stroke-width="0.5" points="325.98,-37.12 331.28,-36.91 327.01,-33.77 325.98,-37.12"/>
</g>
</g>
</svg>
