<?xml version="1.0" encoding="UTF-8" standalone="no"?>
<!DOCTYPE svg PUBLIC "-//W3C//DTD SVG 1.1//EN"
 "http://www.w3.org/Graphics/SVG/1.1/DTD/svg11.dtd">
<!-- Generated by graphviz version 2.43.0 (0)
 -->
<!-- Title: inheritancee78472d626 Pages: 1 -->
<svg width="507pt" height="101pt"
 viewBox="0.00 0.00 507.00 101.00" xmlns="http://www.w3.org/2000/svg" xmlns:xlink="http://www.w3.org/1999/xlink">
<g id="graph0" class="graph" transform="scale(1 1) rotate(0) translate(4 97)">
<title>inheritancee78472d626</title>
<!-- ConstrainedScalarSubtypeSymbol -->
<g id="node1" class="node">
<title>ConstrainedScalarSubtypeSymbol</title>
<g id="a_node1"><a xlink:href="../pyGHDL/pyGHDL.dom.Symbol.html#pyGHDL.dom.Symbol.ConstrainedScalarSubtypeSymbol" xlink:title="A configuration reference in a configuration instantiation." target="_top">
<polygon fill="white" stroke="#1e90ff" points="499,-56 317,-56 317,-37 499,-37 499,-56"/>
<text text-anchor="middle" x="408" y="-44" font-family="Vera Sans, DejaVu Sans, Liberation Sans, Arial, Helvetica, sans" font-size="10.00">ConstrainedScalarSubtypeSymbol</text>
</a>
</g>
</g>
<!-- ConstrainedScalarSubtypeSymbol&#45;&gt;ConstrainedScalarSubtypeSymbol -->
<g id="edge1" class="edge">
<title>ConstrainedScalarSubtypeSymbol&#45;&gt;ConstrainedScalarSubtypeSymbol</title>
<path fill="none" stroke="black" stroke-width="0.5" d="M382.41,-56.08C369.97,-64.73 378.5,-74 408,-74 433.35,-74 443.22,-67.16 437.59,-59.74"/>
<polygon fill="black" stroke="black" stroke-width="0.5" points="438.46,-58.16 433.59,-56.08 436.1,-60.75 438.46,-58.16"/>
</g>
<!-- DOMMixin -->
<g id="node2" class="node">
<title>DOMMixin</title>
<g id="a_node2"><a xlink:href="../pyGHDL.dom.html#pyGHDL.dom.DOMMixin" xlink:title="DOMMixin" target="_top">
<polygon fill="white" stroke="#1e90ff" points="275,-93 207,-93 207,-74 275,-74 275,-93"/>
<text text-anchor="middle" x="241" y="-81" font-family="Vera Sans, DejaVu Sans, Liberation Sans, Arial, Helvetica, sans" font-size="10.00">DOMMixin</text>
</a>
</g>
</g>
<!-- DOMMixin&#45;&gt;ConstrainedScalarSubtypeSymbol -->
<g id="edge2" class="edge">
<title>DOMMixin&#45;&gt;ConstrainedScalarSubtypeSymbol</title>
<path fill="none" stroke="black" stroke-width="0.5" d="M275.39,-76.01C299.59,-70.59 332.66,-63.17 359.59,-57.13"/>
<polygon fill="black" stroke="black" stroke-width="0.5" points="360.05,-58.82 364.55,-56.02 359.28,-55.41 360.05,-58.82"/>
</g>
<!-- SimpleName -->
<g id="node3" class="node">
<title>SimpleName</title>
<g id="a_node3"><a xlink:title="A *simple name* is a name made from a single word.">
<polygon fill="white" stroke="#1e90ff" points="281,-56 201,-56 201,-37 281,-37 281,-56"/>
<text text-anchor="middle" x="241" y="-44" font-family="Vera Sans, DejaVu Sans, Liberation Sans, Arial, Helvetica, sans" font-size="10.00">SimpleName</text>
</a>
</g>
</g>
<!-- SimpleName&#45;&gt;ConstrainedScalarSubtypeSymbol -->
<g id="edge3" class="edge">
<title>SimpleName&#45;&gt;ConstrainedScalarSubtypeSymbol</title>
<path fill="none" stroke="black" stroke-width="0.5" d="M281.1,-46.5C290.44,-46.5 300.81,-46.5 311.48,-46.5"/>
<polygon fill="black" stroke="black" stroke-width="0.5" points="311.74,-48.25 316.74,-46.5 311.74,-44.75 311.74,-48.25"/>
</g>
<!-- Symbol -->
<g id="node4" class="node">
<title>Symbol</title>
<polygon fill="white" stroke="#1e90ff" points="268,-19 214,-19 214,0 268,0 268,-19"/>
<text text-anchor="middle" x="241" y="-7" font-family="Vera Sans, DejaVu Sans, Liberation Sans, Arial, Helvetica, sans" font-size="10.00">Symbol</text>
</g>
<!-- Symbol&#45;&gt;ConstrainedScalarSubtypeSymbol -->
<g id="edge4" class="edge">
<title>Symbol&#45;&gt;ConstrainedScalarSubtypeSymbol</title>
<path fill="none" stroke="black" stroke-width="0.5" d="M268.14,-15.36C292.63,-20.85 329.79,-29.19 359.51,-35.85"/>
<polygon fill="black" stroke="black" stroke-width="0.5" points="359.33,-37.6 364.59,-36.99 360.1,-34.19 359.33,-37.6"/>
</g>
<!-- ModelEntity -->
<g id="node5" class="node">
<title>ModelEntity</title>
<g id="a_node5"><a xlink:title="``ModelEntity`` is the base&#45;class for all classes in the VHDL language model, except for mixin classes (see multiple">
<polygon fill="white" stroke="#1e90ff" points="75,-56 0,-56 0,-37 75,-37 75,-56"/>
<text text-anchor="middle" x="37.5" y="-44" font-family="Vera Sans, DejaVu Sans, Liberation Sans, Arial, Helvetica, sans" font-size="10.00">ModelEntity</text>
</a>
</g>
</g>
<!-- Name -->
<g id="node6" class="node">
<title>Name</title>
<g id="a_node6"><a xlink:title="``Name`` is the base&#45;class for all *names* in the VHDL language model.">
<polygon fill="white" stroke="#1e90ff" points="165,-56 111,-56 111,-37 165,-37 165,-56"/>
<text text-anchor="middle" x="138" y="-44" font-family="Vera Sans, DejaVu Sans, Liberation Sans, Arial, Helvetica, sans" font-size="10.00">Name</text>
</a>
</g>
</g>
<!-- ModelEntity&#45;&gt;Name -->
<g id="edge5" class="edge">
<title>ModelEntity&#45;&gt;Name</title>
<path fill="none" stroke="black" stroke-width="0.5" d="M75.18,-46.5C85.15,-46.5 95.85,-46.5 105.51,-46.5"/>
<polygon fill="black" stroke="black" stroke-width="0.5" points="105.75,-48.25 110.75,-46.5 105.75,-44.75 105.75,-48.25"/>
</g>
<!-- Name&#45;&gt;SimpleName -->
<g id="edge6" class="edge">
<title>Name&#45;&gt;SimpleName</title>
<path fill="none" stroke="black" stroke-width="0.5" d="M165.01,-46.5C174.35,-46.5 185.17,-46.5 195.63,-46.5"/>
<polygon fill="black" stroke="black" stroke-width="0.5" points="195.73,-48.25 200.73,-46.5 195.73,-44.75 195.73,-48.25"/>
</g>
</g>
</svg>
