<?xml version="1.0" encoding="UTF-8" standalone="no"?>
<!DOCTYPE svg PUBLIC "-//W3C//DTD SVG 1.1//EN"
 "http://www.w3.org/Graphics/SVG/1.1/DTD/svg11.dtd">
<!-- Generated by graphviz version 2.43.0 (0)
 -->
<!-- Title: inheritancee2073c03f5 Pages: 1 -->
<svg width="474pt" height="101pt"
 viewBox="0.00 0.00 474.00 101.00" xmlns="http://www.w3.org/2000/svg" xmlns:xlink="http://www.w3.org/1999/xlink">
<g id="graph0" class="graph" transform="scale(1 1) rotate(0) translate(4 97)">
<title>inheritancee2073c03f5</title>
<!-- ContextReferenceSymbol -->
<g id="node1" class="node">
<title>ContextReferenceSymbol</title>
<g id="a_node1"><a xlink:href="../pyGHDL/pyGHDL.dom.Symbol.html#pyGHDL.dom.Symbol.ContextReferenceSymbol" xlink:title="A context reference in a context clause." target="_top">
<polygon fill="white" stroke="#1e90ff" points="466,-56 325,-56 325,-37 466,-37 466,-56"/>
<text text-anchor="middle" x="395.5" y="-44" font-family="Vera Sans, DejaVu Sans, Liberation Sans, Arial, Helvetica, sans" font-size="10.00">ContextReferenceSymbol</text>
</a>
</g>
</g>
<!-- ContextReferenceSymbol&#45;&gt;ContextReferenceSymbol -->
<g id="edge1" class="edge">
<title>ContextReferenceSymbol&#45;&gt;ContextReferenceSymbol</title>
<path fill="none" stroke="black" stroke-width="0.5" d="M372.38,-56.08C361.13,-64.73 368.84,-74 395.5,-74 418.41,-74 427.32,-67.16 422.24,-59.74"/>
<polygon fill="black" stroke="black" stroke-width="0.5" points="423.38,-58.41 418.62,-56.08 420.89,-60.87 423.38,-58.41"/>
</g>
<!-- DOMMixin -->
<g id="node2" class="node">
<title>DOMMixin</title>
<g id="a_node2"><a xlink:href="../pyGHDL.dom.html#pyGHDL.dom.DOMMixin" xlink:title="DOMMixin" target="_top">
<polygon fill="white" stroke="#1e90ff" points="279,-93 211,-93 211,-74 279,-74 279,-93"/>
<text text-anchor="middle" x="245" y="-81" font-family="Vera Sans, DejaVu Sans, Liberation Sans, Arial, Helvetica, sans" font-size="10.00">DOMMixin</text>
</a>
</g>
</g>
<!-- DOMMixin&#45;&gt;ContextReferenceSymbol -->
<g id="edge2" class="edge">
<title>DOMMixin&#45;&gt;ContextReferenceSymbol</title>
<path fill="none" stroke="black" stroke-width="0.5" d="M279.33,-75.2C300.55,-69.91 328.27,-63 351.19,-57.29"/>
<polygon fill="black" stroke="black" stroke-width="0.5" points="351.88,-58.92 356.31,-56.02 351.03,-55.53 351.88,-58.92"/>
</g>
<!-- SelectedName -->
<g id="node3" class="node">
<title>SelectedName</title>
<g id="a_node3"><a xlink:title="A *selected name* is a name made from multiple words separated by a dot (``.``).">
<polygon fill="white" stroke="#1e90ff" points="289,-56 201,-56 201,-37 289,-37 289,-56"/>
<text text-anchor="middle" x="245" y="-44" font-family="Vera Sans, DejaVu Sans, Liberation Sans, Arial, Helvetica, sans" font-size="10.00">SelectedName</text>
</a>
</g>
</g>
<!-- SelectedName&#45;&gt;ContextReferenceSymbol -->
<g id="edge3" class="edge">
<title>SelectedName&#45;&gt;ContextReferenceSymbol</title>
<path fill="none" stroke="black" stroke-width="0.5" d="M289.35,-46.5C298.92,-46.5 309.31,-46.5 319.72,-46.5"/>
<polygon fill="black" stroke="black" stroke-width="0.5" points="319.83,-48.25 324.83,-46.5 319.83,-44.75 319.83,-48.25"/>
</g>
<!-- Symbol -->
<g id="node4" class="node">
<title>Symbol</title>
<polygon fill="white" stroke="#1e90ff" points="272,-19 218,-19 218,0 272,0 272,-19"/>
<text text-anchor="middle" x="245" y="-7" font-family="Vera Sans, DejaVu Sans, Liberation Sans, Arial, Helvetica, sans" font-size="10.00">Symbol</text>
</g>
<!-- Symbol&#45;&gt;ContextReferenceSymbol -->
<g id="edge4" class="edge">
<title>Symbol&#45;&gt;ContextReferenceSymbol</title>
<path fill="none" stroke="black" stroke-width="0.5" d="M272.21,-16.03C294.06,-21.48 325.65,-29.35 351.25,-35.72"/>
<polygon fill="black" stroke="black" stroke-width="0.5" points="351.01,-37.47 356.29,-36.98 351.86,-34.07 351.01,-37.47"/>
</g>
<!-- ModelEntity -->
<g id="node5" class="node">
<title>ModelEntity</title>
<g id="a_node5"><a xlink:title="``ModelEntity`` is the base&#45;class for all classes in the VHDL language model, except for mixin classes (see multiple">
<polygon fill="white" stroke="#1e90ff" points="75,-56 0,-56 0,-37 75,-37 75,-56"/>
<text text-anchor="middle" x="37.5" y="-44" font-family="Vera Sans, DejaVu Sans, Liberation Sans, Arial, Helvetica, sans" font-size="10.00">ModelEntity</text>
</a>
</g>
</g>
<!-- Name -->
<g id="node6" class="node">
<title>Name</title>
<g id="a_node6"><a xlink:title="``Name`` is the base&#45;class for all *names* in the VHDL language model.">
<polygon fill="white" stroke="#1e90ff" points="165,-56 111,-56 111,-37 165,-37 165,-56"/>
<text text-anchor="middle" x="138" y="-44" font-family="Vera Sans, DejaVu Sans, Liberation Sans, Arial, Helvetica, sans" font-size="10.00">Name</text>
</a>
</g>
</g>
<!-- ModelEntity&#45;&gt;Name -->
<g id="edge5" class="edge">
<title>ModelEntity&#45;&gt;Name</title>
<path fill="none" stroke="black" stroke-width="0.5" d="M75.18,-46.5C85.15,-46.5 95.85,-46.5 105.51,-46.5"/>
<polygon fill="black" stroke="black" stroke-width="0.5" points="105.75,-48.25 110.75,-46.5 105.75,-44.75 105.75,-48.25"/>
</g>
<!-- Name&#45;&gt;SelectedName -->
<g id="edge6" class="edge">
<title>Name&#45;&gt;SelectedName</title>
<path fill="none" stroke="black" stroke-width="0.5" d="M165.23,-46.5C174.52,-46.5 185.29,-46.5 195.83,-46.5"/>
<polygon fill="black" stroke="black" stroke-width="0.5" points="195.97,-48.25 200.97,-46.5 195.97,-44.75 195.97,-48.25"/>
</g>
</g>
</svg>
