<?xml version="1.0" encoding="UTF-8" standalone="no"?>
<!DOCTYPE svg PUBLIC "-//W3C//DTD SVG 1.1//EN"
 "http://www.w3.org/Graphics/SVG/1.1/DTD/svg11.dtd">
<!-- Generated by graphviz version 2.43.0 (0)
 -->
<!-- Title: inheritance3976506a58 Pages: 1 -->
<svg width="452pt" height="101pt"
 viewBox="0.00 0.00 452.00 101.00" xmlns="http://www.w3.org/2000/svg" xmlns:xlink="http://www.w3.org/1999/xlink">
<g id="graph0" class="graph" transform="scale(1 1) rotate(0) translate(4 97)">
<title>inheritance3976506a58</title>
<!-- DOMMixin -->
<g id="node1" class="node">
<title>DOMMixin</title>
<g id="a_node1"><a xlink:href="../pyGHDL.dom.html#pyGHDL.dom.DOMMixin" xlink:title="DOMMixin" target="_top">
<polygon fill="white" stroke="#1e90ff" points="275,-93 207,-93 207,-74 275,-74 275,-93"/>
<text text-anchor="middle" x="241" y="-81" font-family="Vera Sans, DejaVu Sans, Liberation Sans, Arial, Helvetica, sans" font-size="10.00">DOMMixin</text>
</a>
</g>
</g>
<!-- SimpleSubtypeSymbol -->
<g id="node5" class="node">
<title>SimpleSubtypeSymbol</title>
<g id="a_node5"><a xlink:href="../pyGHDL/pyGHDL.dom.Symbol.html#pyGHDL.dom.Symbol.SimpleSubtypeSymbol" xlink:title="A configuration reference in a configuration instantiation." target="_top">
<polygon fill="white" stroke="#1e90ff" points="444,-56 317,-56 317,-37 444,-37 444,-56"/>
<text text-anchor="middle" x="380.5" y="-44" font-family="Vera Sans, DejaVu Sans, Liberation Sans, Arial, Helvetica, sans" font-size="10.00">SimpleSubtypeSymbol</text>
</a>
</g>
</g>
<!-- DOMMixin&#45;&gt;SimpleSubtypeSymbol -->
<g id="edge4" class="edge">
<title>DOMMixin&#45;&gt;SimpleSubtypeSymbol</title>
<path fill="none" stroke="black" stroke-width="0.5" d="M275.28,-74.54C294.48,-69.38 318.76,-62.84 339.05,-57.38"/>
<polygon fill="black" stroke="black" stroke-width="0.5" points="339.74,-59.01 344.12,-56.02 338.84,-55.63 339.74,-59.01"/>
</g>
<!-- ModelEntity -->
<g id="node2" class="node">
<title>ModelEntity</title>
<g id="a_node2"><a xlink:title="``ModelEntity`` is the base&#45;class for all classes in the VHDL language model, except for mixin classes (see multiple">
<polygon fill="white" stroke="#1e90ff" points="75,-56 0,-56 0,-37 75,-37 75,-56"/>
<text text-anchor="middle" x="37.5" y="-44" font-family="Vera Sans, DejaVu Sans, Liberation Sans, Arial, Helvetica, sans" font-size="10.00">ModelEntity</text>
</a>
</g>
</g>
<!-- Name -->
<g id="node3" class="node">
<title>Name</title>
<g id="a_node3"><a xlink:title="``Name`` is the base&#45;class for all *names* in the VHDL language model.">
<polygon fill="white" stroke="#1e90ff" points="165,-56 111,-56 111,-37 165,-37 165,-56"/>
<text text-anchor="middle" x="138" y="-44" font-family="Vera Sans, DejaVu Sans, Liberation Sans, Arial, Helvetica, sans" font-size="10.00">Name</text>
</a>
</g>
</g>
<!-- ModelEntity&#45;&gt;Name -->
<g id="edge1" class="edge">
<title>ModelEntity&#45;&gt;Name</title>
<path fill="none" stroke="black" stroke-width="0.5" d="M75.18,-46.5C85.15,-46.5 95.85,-46.5 105.51,-46.5"/>
<polygon fill="black" stroke="black" stroke-width="0.5" points="105.75,-48.25 110.75,-46.5 105.75,-44.75 105.75,-48.25"/>
</g>
<!-- SimpleName -->
<g id="node4" class="node">
<title>SimpleName</title>
<g id="a_node4"><a xlink:title="A *simple name* is a name made from a single word.">
<polygon fill="white" stroke="#1e90ff" points="281,-56 201,-56 201,-37 281,-37 281,-56"/>
<text text-anchor="middle" x="241" y="-44" font-family="Vera Sans, DejaVu Sans, Liberation Sans, Arial, Helvetica, sans" font-size="10.00">SimpleName</text>
</a>
</g>
</g>
<!-- Name&#45;&gt;SimpleName -->
<g id="edge2" class="edge">
<title>Name&#45;&gt;SimpleName</title>
<path fill="none" stroke="black" stroke-width="0.5" d="M165.01,-46.5C174.35,-46.5 185.17,-46.5 195.63,-46.5"/>
<polygon fill="black" stroke="black" stroke-width="0.5" points="195.73,-48.25 200.73,-46.5 195.73,-44.75 195.73,-48.25"/>
</g>
<!-- SimpleName&#45;&gt;SimpleSubtypeSymbol -->
<g id="edge5" class="edge">
<title>SimpleName&#45;&gt;SimpleSubtypeSymbol</title>
<path fill="none" stroke="black" stroke-width="0.5" d="M281.03,-46.5C290.65,-46.5 301.24,-46.5 311.79,-46.5"/>
<polygon fill="black" stroke="black" stroke-width="0.5" points="311.96,-48.25 316.96,-46.5 311.96,-44.75 311.96,-48.25"/>
</g>
<!-- SimpleSubtypeSymbol&#45;&gt;SimpleSubtypeSymbol -->
<g id="edge3" class="edge">
<title>SimpleSubtypeSymbol&#45;&gt;SimpleSubtypeSymbol</title>
<path fill="none" stroke="black" stroke-width="0.5" d="M359.23,-56.08C348.88,-64.73 355.97,-74 380.5,-74 401.19,-74 409.48,-67.4 405.34,-60.15"/>
<polygon fill="black" stroke="black" stroke-width="0.5" points="406.39,-58.68 401.77,-56.08 403.76,-60.99 406.39,-58.68"/>
</g>
<!-- Symbol -->
<g id="node6" class="node">
<title>Symbol</title>
<polygon fill="white" stroke="#1e90ff" points="268,-19 214,-19 214,0 268,0 268,-19"/>
<text text-anchor="middle" x="241" y="-7" font-family="Vera Sans, DejaVu Sans, Liberation Sans, Arial, Helvetica, sans" font-size="10.00">Symbol</text>
</g>
<!-- Symbol&#45;&gt;SimpleSubtypeSymbol -->
<g id="edge6" class="edge">
<title>Symbol&#45;&gt;SimpleSubtypeSymbol</title>
<path fill="none" stroke="black" stroke-width="0.5" d="M268.19,-16.55C288.18,-21.93 316.09,-29.44 338.96,-35.59"/>
<polygon fill="black" stroke="black" stroke-width="0.5" points="338.78,-37.35 344.06,-36.96 339.69,-33.97 338.78,-37.35"/>
</g>
</g>
</svg>
