<?xml version="1.0" encoding="UTF-8" standalone="no"?>
<!DOCTYPE svg PUBLIC "-//W3C//DTD SVG 1.1//EN"
 "http://www.w3.org/Graphics/SVG/1.1/DTD/svg11.dtd">
<!-- Generated by graphviz version 2.43.0 (0)
 -->
<!-- Title: inheritance1de42c24c8 Pages: 1 -->
<svg width="514pt" height="101pt"
 viewBox="0.00 0.00 514.00 101.00" xmlns="http://www.w3.org/2000/svg" xmlns:xlink="http://www.w3.org/1999/xlink">
<g id="graph0" class="graph" transform="scale(1 1) rotate(0) translate(4 97)">
<title>inheritance1de42c24c8</title>
<!-- AllName -->
<g id="node1" class="node">
<title>AllName</title>
<g id="a_node1"><a xlink:title="The *all name* represents the reserved word ``all`` used in names.">
<polygon fill="white" stroke="#1e90ff" points="264.5,-19 205.5,-19 205.5,0 264.5,0 264.5,-19"/>
<text text-anchor="middle" x="235" y="-7" font-family="Vera Sans, DejaVu Sans, Liberation Sans, Arial, Helvetica, sans" font-size="10.00">AllName</text>
</a>
</g>
</g>
<!-- AllPackageMembersReferenceSymbol -->
<g id="node3" class="node">
<title>AllPackageMembersReferenceSymbol</title>
<g id="a_node3"><a xlink:href="../pyGHDL/pyGHDL.dom.Symbol.html#pyGHDL.dom.Symbol.AllPackageMembersReferenceSymbol" xlink:title="A package reference in a use clause." target="_top">
<polygon fill="white" stroke="#1e90ff" points="506,-56 305,-56 305,-37 506,-37 506,-56"/>
<text text-anchor="middle" x="405.5" y="-44" font-family="Vera Sans, DejaVu Sans, Liberation Sans, Arial, Helvetica, sans" font-size="10.00">AllPackageMembersReferenceSymbol</text>
</a>
</g>
</g>
<!-- AllName&#45;&gt;AllPackageMembersReferenceSymbol -->
<g id="edge4" class="edge">
<title>AllName&#45;&gt;AllPackageMembersReferenceSymbol</title>
<path fill="none" stroke="black" stroke-width="0.5" d="M264.58,-15.78C289.61,-21.27 326.51,-29.37 356.13,-35.88"/>
<polygon fill="black" stroke="black" stroke-width="0.5" points="355.93,-37.63 361.19,-36.99 356.68,-34.21 355.93,-37.63"/>
</g>
<!-- Name -->
<g id="node2" class="node">
<title>Name</title>
<g id="a_node2"><a xlink:title="``Name`` is the base&#45;class for all *names* in the VHDL language model.">
<polygon fill="white" stroke="#1e90ff" points="165,-19 111,-19 111,0 165,0 165,-19"/>
<text text-anchor="middle" x="138" y="-7" font-family="Vera Sans, DejaVu Sans, Liberation Sans, Arial, Helvetica, sans" font-size="10.00">Name</text>
</a>
</g>
</g>
<!-- Name&#45;&gt;AllName -->
<g id="edge1" class="edge">
<title>Name&#45;&gt;AllName</title>
<path fill="none" stroke="black" stroke-width="0.5" d="M165.21,-9.5C175.97,-9.5 188.58,-9.5 200.03,-9.5"/>
<polygon fill="black" stroke="black" stroke-width="0.5" points="200.21,-11.25 205.21,-9.5 200.21,-7.75 200.21,-11.25"/>
</g>
<!-- AllPackageMembersReferenceSymbol&#45;&gt;AllPackageMembersReferenceSymbol -->
<g id="edge2" class="edge">
<title>AllPackageMembersReferenceSymbol&#45;&gt;AllPackageMembersReferenceSymbol</title>
<path fill="none" stroke="black" stroke-width="0.5" d="M379.3,-56.08C366.55,-64.73 375.29,-74 405.5,-74 431.47,-74 441.57,-67.16 435.81,-59.74"/>
<polygon fill="black" stroke="black" stroke-width="0.5" points="436.6,-58.1 431.7,-56.08 434.27,-60.72 436.6,-58.1"/>
</g>
<!-- DOMMixin -->
<g id="node4" class="node">
<title>DOMMixin</title>
<g id="a_node4"><a xlink:href="../pyGHDL.dom.html#pyGHDL.dom.DOMMixin" xlink:title="DOMMixin" target="_top">
<polygon fill="white" stroke="#1e90ff" points="269,-93 201,-93 201,-74 269,-74 269,-93"/>
<text text-anchor="middle" x="235" y="-81" font-family="Vera Sans, DejaVu Sans, Liberation Sans, Arial, Helvetica, sans" font-size="10.00">DOMMixin</text>
</a>
</g>
</g>
<!-- DOMMixin&#45;&gt;AllPackageMembersReferenceSymbol -->
<g id="edge3" class="edge">
<title>DOMMixin&#45;&gt;AllPackageMembersReferenceSymbol</title>
<path fill="none" stroke="black" stroke-width="0.5" d="M269.29,-76.19C294.03,-70.76 328.16,-63.26 355.94,-57.16"/>
<polygon fill="black" stroke="black" stroke-width="0.5" points="356.54,-58.82 361.05,-56.04 355.79,-55.4 356.54,-58.82"/>
</g>
<!-- Symbol -->
<g id="node5" class="node">
<title>Symbol</title>
<polygon fill="white" stroke="#1e90ff" points="262,-56 208,-56 208,-37 262,-37 262,-56"/>
<text text-anchor="middle" x="235" y="-44" font-family="Vera Sans, DejaVu Sans, Liberation Sans, Arial, Helvetica, sans" font-size="10.00">Symbol</text>
</g>
<!-- Symbol&#45;&gt;AllPackageMembersReferenceSymbol -->
<g id="edge5" class="edge">
<title>Symbol&#45;&gt;AllPackageMembersReferenceSymbol</title>
<path fill="none" stroke="black" stroke-width="0.5" d="M262.33,-46.5C272.96,-46.5 285.98,-46.5 299.78,-46.5"/>
<polygon fill="black" stroke="black" stroke-width="0.5" points="299.9,-48.25 304.9,-46.5 299.9,-44.75 299.9,-48.25"/>
</g>
<!-- ModelEntity -->
<g id="node6" class="node">
<title>ModelEntity</title>
<g id="a_node6"><a xlink:title="``ModelEntity`` is the base&#45;class for all classes in the VHDL language model, except for mixin classes (see multiple">
<polygon fill="white" stroke="#1e90ff" points="75,-19 0,-19 0,0 75,0 75,-19"/>
<text text-anchor="middle" x="37.5" y="-7" font-family="Vera Sans, DejaVu Sans, Liberation Sans, Arial, Helvetica, sans" font-size="10.00">ModelEntity</text>
</a>
</g>
</g>
<!-- ModelEntity&#45;&gt;Name -->
<g id="edge6" class="edge">
<title>ModelEntity&#45;&gt;Name</title>
<path fill="none" stroke="black" stroke-width="0.5" d="M75.18,-9.5C85.15,-9.5 95.85,-9.5 105.51,-9.5"/>
<polygon fill="black" stroke="black" stroke-width="0.5" points="105.75,-11.25 110.75,-9.5 105.75,-7.75 105.75,-11.25"/>
</g>
</g>
</svg>
