<?xml version="1.0" encoding="UTF-8" standalone="no"?>
<!DOCTYPE svg PUBLIC "-//W3C//DTD SVG 1.1//EN"
 "http://www.w3.org/Graphics/SVG/1.1/DTD/svg11.dtd">
<!-- Generated by graphviz version 2.43.0 (0)
 -->
<!-- Title: inheritance211bec14bb Pages: 1 -->
<svg width="358pt" height="101pt"
 viewBox="0.00 0.00 358.00 101.00" xmlns="http://www.w3.org/2000/svg" xmlns:xlink="http://www.w3.org/1999/xlink">
<g id="graph0" class="graph" transform="scale(1 1) rotate(0) translate(4 97)">
<title>inheritance211bec14bb</title>
<!-- DOMMixin -->
<g id="node1" class="node">
<title>DOMMixin</title>
<g id="a_node1"><a xlink:href="../pyGHDL.dom.html#pyGHDL.dom.DOMMixin" xlink:title="DOMMixin" target="_top">
<polygon fill="white" stroke="#1e90ff" points="247,-93 179,-93 179,-74 247,-74 247,-93"/>
<text text-anchor="middle" x="213" y="-81" font-family="Vera Sans, DejaVu Sans, Liberation Sans, Arial, Helvetica, sans" font-size="10.00">DOMMixin</text>
</a>
</g>
</g>
<!-- Function -->
<g id="node3" class="node">
<title>Function</title>
<g id="a_node3"><a xlink:href="../pyGHDL/pyGHDL.dom.Subprogram.html#pyGHDL.dom.Subprogram.Function" xlink:title="Function" target="_top">
<polygon fill="white" stroke="#1e90ff" points="350,-74 292,-74 292,-55 350,-55 350,-74"/>
<text text-anchor="middle" x="321" y="-62" font-family="Vera Sans, DejaVu Sans, Liberation Sans, Arial, Helvetica, sans" font-size="10.00">Function</text>
</a>
</g>
</g>
<!-- DOMMixin&#45;&gt;Function -->
<g id="edge2" class="edge">
<title>DOMMixin&#45;&gt;Function</title>
<path fill="none" stroke="black" stroke-width="0.5" d="M247.25,-77.54C259.9,-75.27 274.3,-72.69 286.93,-70.43"/>
<polygon fill="black" stroke="black" stroke-width="0.5" points="287.25,-72.15 291.86,-69.54 286.63,-68.7 287.25,-72.15"/>
</g>
<!-- DocumentedEntityMixin -->
<g id="node2" class="node">
<title>DocumentedEntityMixin</title>
<g id="a_node2"><a xlink:title="A ``DocumentedEntityMixin`` is a mixin class for all VHDL entities that can have an associated documentation.">
<polygon fill="white" stroke="#1e90ff" points="134,-93 0,-93 0,-74 134,-74 134,-93"/>
<text text-anchor="middle" x="67" y="-81" font-family="Vera Sans, DejaVu Sans, Liberation Sans, Arial, Helvetica, sans" font-size="10.00">DocumentedEntityMixin</text>
</a>
</g>
</g>
<!-- SubProgramm -->
<g id="node4" class="node">
<title>SubProgramm</title>
<polygon fill="white" stroke="#1e90ff" points="256,-56 170,-56 170,-37 256,-37 256,-56"/>
<text text-anchor="middle" x="213" y="-44" font-family="Vera Sans, DejaVu Sans, Liberation Sans, Arial, Helvetica, sans" font-size="10.00">SubProgramm</text>
</g>
<!-- DocumentedEntityMixin&#45;&gt;SubProgramm -->
<g id="edge6" class="edge">
<title>DocumentedEntityMixin&#45;&gt;SubProgramm</title>
<path fill="none" stroke="black" stroke-width="0.5" d="M105.08,-73.97C124.83,-68.9 149.21,-62.63 169.69,-57.37"/>
<polygon fill="black" stroke="black" stroke-width="0.5" points="170.13,-59.06 174.54,-56.12 169.26,-55.67 170.13,-59.06"/>
</g>
<!-- Function&#45;&gt;Function -->
<g id="edge1" class="edge">
<title>Function&#45;&gt;Function</title>
<path fill="none" stroke="black" stroke-width="0.5" d="M304.35,-74.08C296.26,-82.73 301.8,-92 321,-92 336.9,-92 343.43,-85.65 340.61,-78.55"/>
<polygon fill="black" stroke="black" stroke-width="0.5" points="341.87,-77.28 337.65,-74.08 338.95,-79.22 341.87,-77.28"/>
</g>
<!-- SubProgramm&#45;&gt;Function -->
<g id="edge3" class="edge">
<title>SubProgramm&#45;&gt;Function</title>
<path fill="none" stroke="black" stroke-width="0.5" d="M256.2,-53.67C266.42,-55.4 277.21,-57.23 286.95,-58.89"/>
<polygon fill="black" stroke="black" stroke-width="0.5" points="286.71,-60.62 291.93,-59.73 287.3,-57.17 286.71,-60.62"/>
</g>
<!-- ModelEntity -->
<g id="node5" class="node">
<title>ModelEntity</title>
<g id="a_node5"><a xlink:title="``ModelEntity`` is the base&#45;class for all classes in the VHDL language model, except for mixin classes (see multiple">
<polygon fill="white" stroke="#1e90ff" points="104.5,-56 29.5,-56 29.5,-37 104.5,-37 104.5,-56"/>
<text text-anchor="middle" x="67" y="-44" font-family="Vera Sans, DejaVu Sans, Liberation Sans, Arial, Helvetica, sans" font-size="10.00">ModelEntity</text>
</a>
</g>
</g>
<!-- ModelEntity&#45;&gt;SubProgramm -->
<g id="edge4" class="edge">
<title>ModelEntity&#45;&gt;SubProgramm</title>
<path fill="none" stroke="black" stroke-width="0.5" d="M104.71,-46.5C122.84,-46.5 144.93,-46.5 164.35,-46.5"/>
<polygon fill="black" stroke="black" stroke-width="0.5" points="164.75,-48.25 169.75,-46.5 164.75,-44.75 164.75,-48.25"/>
</g>
<!-- NamedEntityMixin -->
<g id="node6" class="node">
<title>NamedEntityMixin</title>
<g id="a_node6"><a xlink:title="A ``NamedEntityMixin`` is a mixin class for all VHDL entities that have identifiers.">
<polygon fill="white" stroke="#1e90ff" points="120.5,-19 13.5,-19 13.5,0 120.5,0 120.5,-19"/>
<text text-anchor="middle" x="67" y="-7" font-family="Vera Sans, DejaVu Sans, Liberation Sans, Arial, Helvetica, sans" font-size="10.00">NamedEntityMixin</text>
</a>
</g>
</g>
<!-- NamedEntityMixin&#45;&gt;SubProgramm -->
<g id="edge5" class="edge">
<title>NamedEntityMixin&#45;&gt;SubProgramm</title>
<path fill="none" stroke="black" stroke-width="0.5" d="M105.08,-19.03C124.83,-24.1 149.21,-30.37 169.69,-35.63"/>
<polygon fill="black" stroke="black" stroke-width="0.5" points="169.26,-37.33 174.54,-36.88 170.13,-33.94 169.26,-37.33"/>
</g>
</g>
</svg>
