<?xml version="1.0" encoding="UTF-8" standalone="no"?>
<!DOCTYPE svg PUBLIC "-//W3C//DTD SVG 1.1//EN"
 "http://www.w3.org/Graphics/SVG/1.1/DTD/svg11.dtd">
<!-- Generated by graphviz version 2.43.0 (0)
 -->
<!-- Title: inheritance0422672534 Pages: 1 -->
<svg width="515pt" height="101pt"
 viewBox="0.00 0.00 515.00 101.00" xmlns="http://www.w3.org/2000/svg" xmlns:xlink="http://www.w3.org/1999/xlink">
<g id="graph0" class="graph" transform="scale(1 1) rotate(0) translate(4 97)">
<title>inheritance0422672534</title>
<!-- DOMMixin -->
<g id="node1" class="node">
<title>DOMMixin</title>
<g id="a_node1"><a xlink:href="../pyGHDL.dom.html#pyGHDL.dom.DOMMixin" xlink:title="DOMMixin" target="_top">
<polygon fill="white" stroke="#1e90ff" points="275,-93 207,-93 207,-74 275,-74 275,-93"/>
<text text-anchor="middle" x="241" y="-81" font-family="Vera Sans, DejaVu Sans, Liberation Sans, Arial, Helvetica, sans" font-size="10.00">DOMMixin</text>
</a>
</g>
</g>
<!-- SimpleObjectOrFunctionCallSymbol -->
<g id="node5" class="node">
<title>SimpleObjectOrFunctionCallSymbol</title>
<g id="a_node5"><a xlink:href="../pyGHDL/pyGHDL.dom.Symbol.html#pyGHDL.dom.Symbol.SimpleObjectOrFunctionCallSymbol" xlink:title="A configuration reference in a configuration instantiation." target="_top">
<polygon fill="white" stroke="#1e90ff" points="507,-56 317,-56 317,-37 507,-37 507,-56"/>
<text text-anchor="middle" x="412" y="-44" font-family="Vera Sans, DejaVu Sans, Liberation Sans, Arial, Helvetica, sans" font-size="10.00">SimpleObjectOrFunctionCallSymbol</text>
</a>
</g>
</g>
<!-- DOMMixin&#45;&gt;SimpleObjectOrFunctionCallSymbol -->
<g id="edge4" class="edge">
<title>DOMMixin&#45;&gt;SimpleObjectOrFunctionCallSymbol</title>
<path fill="none" stroke="black" stroke-width="0.5" d="M275.39,-76.19C300.2,-70.76 334.43,-63.26 362.3,-57.16"/>
<polygon fill="black" stroke="black" stroke-width="0.5" points="362.91,-58.82 367.42,-56.04 362.16,-55.4 362.91,-58.82"/>
</g>
<!-- ModelEntity -->
<g id="node2" class="node">
<title>ModelEntity</title>
<g id="a_node2"><a xlink:title="``ModelEntity`` is the base&#45;class for all classes in the VHDL language model, except for mixin classes (see multiple">
<polygon fill="white" stroke="#1e90ff" points="75,-56 0,-56 0,-37 75,-37 75,-56"/>
<text text-anchor="middle" x="37.5" y="-44" font-family="Vera Sans, DejaVu Sans, Liberation Sans, Arial, Helvetica, sans" font-size="10.00">ModelEntity</text>
</a>
</g>
</g>
<!-- Name -->
<g id="node3" class="node">
<title>Name</title>
<g id="a_node3"><a xlink:title="``Name`` is the base&#45;class for all *names* in the VHDL language model.">
<polygon fill="white" stroke="#1e90ff" points="165,-56 111,-56 111,-37 165,-37 165,-56"/>
<text text-anchor="middle" x="138" y="-44" font-family="Vera Sans, DejaVu Sans, Liberation Sans, Arial, Helvetica, sans" font-size="10.00">Name</text>
</a>
</g>
</g>
<!-- ModelEntity&#45;&gt;Name -->
<g id="edge1" class="edge">
<title>ModelEntity&#45;&gt;Name</title>
<path fill="none" stroke="black" stroke-width="0.5" d="M75.18,-46.5C85.15,-46.5 95.85,-46.5 105.51,-46.5"/>
<polygon fill="black" stroke="black" stroke-width="0.5" points="105.75,-48.25 110.75,-46.5 105.75,-44.75 105.75,-48.25"/>
</g>
<!-- SimpleName -->
<g id="node4" class="node">
<title>SimpleName</title>
<g id="a_node4"><a xlink:title="A *simple name* is a name made from a single word.">
<polygon fill="white" stroke="#1e90ff" points="281,-56 201,-56 201,-37 281,-37 281,-56"/>
<text text-anchor="middle" x="241" y="-44" font-family="Vera Sans, DejaVu Sans, Liberation Sans, Arial, Helvetica, sans" font-size="10.00">SimpleName</text>
</a>
</g>
</g>
<!-- Name&#45;&gt;SimpleName -->
<g id="edge2" class="edge">
<title>Name&#45;&gt;SimpleName</title>
<path fill="none" stroke="black" stroke-width="0.5" d="M165.01,-46.5C174.35,-46.5 185.17,-46.5 195.63,-46.5"/>
<polygon fill="black" stroke="black" stroke-width="0.5" points="195.73,-48.25 200.73,-46.5 195.73,-44.75 195.73,-48.25"/>
</g>
<!-- SimpleName&#45;&gt;SimpleObjectOrFunctionCallSymbol -->
<g id="edge5" class="edge">
<title>SimpleName&#45;&gt;SimpleObjectOrFunctionCallSymbol</title>
<path fill="none" stroke="black" stroke-width="0.5" d="M281.2,-46.5C290.5,-46.5 300.84,-46.5 311.51,-46.5"/>
<polygon fill="black" stroke="black" stroke-width="0.5" points="311.77,-48.25 316.77,-46.5 311.77,-44.75 311.77,-48.25"/>
</g>
<!-- SimpleObjectOrFunctionCallSymbol&#45;&gt;SimpleObjectOrFunctionCallSymbol -->
<g id="edge3" class="edge">
<title>SimpleObjectOrFunctionCallSymbol&#45;&gt;SimpleObjectOrFunctionCallSymbol</title>
<path fill="none" stroke="black" stroke-width="0.5" d="M385.8,-56.08C373.05,-64.73 381.79,-74 412,-74 437.97,-74 448.07,-67.16 442.31,-59.74"/>
<polygon fill="black" stroke="black" stroke-width="0.5" points="443.1,-58.1 438.2,-56.08 440.77,-60.72 443.1,-58.1"/>
</g>
<!-- Symbol -->
<g id="node6" class="node">
<title>Symbol</title>
<polygon fill="white" stroke="#1e90ff" points="268,-19 214,-19 214,0 268,0 268,-19"/>
<text text-anchor="middle" x="241" y="-7" font-family="Vera Sans, DejaVu Sans, Liberation Sans, Arial, Helvetica, sans" font-size="10.00">Symbol</text>
</g>
<!-- Symbol&#45;&gt;SimpleObjectOrFunctionCallSymbol -->
<g id="edge6" class="edge">
<title>Symbol&#45;&gt;SimpleObjectOrFunctionCallSymbol</title>
<path fill="none" stroke="black" stroke-width="0.5" d="M268.04,-15.2C293.07,-20.68 331.53,-29.1 362.25,-35.83"/>
<polygon fill="black" stroke="black" stroke-width="0.5" points="362.25,-37.62 367.5,-36.98 362.99,-34.2 362.25,-37.62"/>
</g>
</g>
</svg>
