<?xml version="1.0" encoding="UTF-8" standalone="no"?>
<!DOCTYPE svg PUBLIC "-//W3C//DTD SVG 1.1//EN"
 "http://www.w3.org/Graphics/SVG/1.1/DTD/svg11.dtd">
<!-- Generated by graphviz version 2.43.0 (0)
 -->
<!-- Title: inheritance45d9bdd109 Pages: 1 -->
<svg width="365pt" height="101pt"
 viewBox="0.00 0.00 365.00 101.00" xmlns="http://www.w3.org/2000/svg" xmlns:xlink="http://www.w3.org/1999/xlink">
<g id="graph0" class="graph" transform="scale(1 1) rotate(0) translate(4 97)">
<title>inheritance45d9bdd109</title>
<!-- DOMMixin -->
<g id="node1" class="node">
<title>DOMMixin</title>
<g id="a_node1"><a xlink:href="../pyGHDL.dom.html#pyGHDL.dom.DOMMixin" xlink:title="DOMMixin" target="_top">
<polygon fill="white" stroke="#1e90ff" points="247,-93 179,-93 179,-74 247,-74 247,-93"/>
<text text-anchor="middle" x="213" y="-81" font-family="Vera Sans, DejaVu Sans, Liberation Sans, Arial, Helvetica, sans" font-size="10.00">DOMMixin</text>
</a>
</g>
</g>
<!-- Procedure -->
<g id="node5" class="node">
<title>Procedure</title>
<g id="a_node5"><a xlink:href="../pyGHDL/pyGHDL.dom.Subprogram.html#pyGHDL.dom.Subprogram.Procedure" xlink:title="Procedure" target="_top">
<polygon fill="white" stroke="#1e90ff" points="357,-74 292,-74 292,-55 357,-55 357,-74"/>
<text text-anchor="middle" x="324.5" y="-62" font-family="Vera Sans, DejaVu Sans, Liberation Sans, Arial, Helvetica, sans" font-size="10.00">Procedure</text>
</a>
</g>
</g>
<!-- DOMMixin&#45;&gt;Procedure -->
<g id="edge2" class="edge">
<title>DOMMixin&#45;&gt;Procedure</title>
<path fill="none" stroke="black" stroke-width="0.5" d="M247.15,-77.75C259.71,-75.57 274.07,-73.08 286.93,-70.85"/>
<polygon fill="black" stroke="black" stroke-width="0.5" points="287.34,-72.55 291.96,-69.97 286.74,-69.1 287.34,-72.55"/>
</g>
<!-- DocumentedEntityMixin -->
<g id="node2" class="node">
<title>DocumentedEntityMixin</title>
<g id="a_node2"><a xlink:title="A ``DocumentedEntityMixin`` is a mixin class for all VHDL entities that can have an associated documentation.">
<polygon fill="white" stroke="#1e90ff" points="134,-93 0,-93 0,-74 134,-74 134,-93"/>
<text text-anchor="middle" x="67" y="-81" font-family="Vera Sans, DejaVu Sans, Liberation Sans, Arial, Helvetica, sans" font-size="10.00">DocumentedEntityMixin</text>
</a>
</g>
</g>
<!-- SubProgramm -->
<g id="node6" class="node">
<title>SubProgramm</title>
<polygon fill="white" stroke="#1e90ff" points="256,-56 170,-56 170,-37 256,-37 256,-56"/>
<text text-anchor="middle" x="213" y="-44" font-family="Vera Sans, DejaVu Sans, Liberation Sans, Arial, Helvetica, sans" font-size="10.00">SubProgramm</text>
</g>
<!-- DocumentedEntityMixin&#45;&gt;SubProgramm -->
<g id="edge6" class="edge">
<title>DocumentedEntityMixin&#45;&gt;SubProgramm</title>
<path fill="none" stroke="black" stroke-width="0.5" d="M105.08,-73.97C124.83,-68.9 149.21,-62.63 169.69,-57.37"/>
<polygon fill="black" stroke="black" stroke-width="0.5" points="170.13,-59.06 174.54,-56.12 169.26,-55.67 170.13,-59.06"/>
</g>
<!-- ModelEntity -->
<g id="node3" class="node">
<title>ModelEntity</title>
<g id="a_node3"><a xlink:title="``ModelEntity`` is the base&#45;class for all classes in the VHDL language model, except for mixin classes (see multiple">
<polygon fill="white" stroke="#1e90ff" points="104.5,-56 29.5,-56 29.5,-37 104.5,-37 104.5,-56"/>
<text text-anchor="middle" x="67" y="-44" font-family="Vera Sans, DejaVu Sans, Liberation Sans, Arial, Helvetica, sans" font-size="10.00">ModelEntity</text>
</a>
</g>
</g>
<!-- ModelEntity&#45;&gt;SubProgramm -->
<g id="edge4" class="edge">
<title>ModelEntity&#45;&gt;SubProgramm</title>
<path fill="none" stroke="black" stroke-width="0.5" d="M104.71,-46.5C122.84,-46.5 144.93,-46.5 164.35,-46.5"/>
<polygon fill="black" stroke="black" stroke-width="0.5" points="164.75,-48.25 169.75,-46.5 164.75,-44.75 164.75,-48.25"/>
</g>
<!-- NamedEntityMixin -->
<g id="node4" class="node">
<title>NamedEntityMixin</title>
<g id="a_node4"><a xlink:title="A ``NamedEntityMixin`` is a mixin class for all VHDL entities that have identifiers.">
<polygon fill="white" stroke="#1e90ff" points="120.5,-19 13.5,-19 13.5,0 120.5,0 120.5,-19"/>
<text text-anchor="middle" x="67" y="-7" font-family="Vera Sans, DejaVu Sans, Liberation Sans, Arial, Helvetica, sans" font-size="10.00">NamedEntityMixin</text>
</a>
</g>
</g>
<!-- NamedEntityMixin&#45;&gt;SubProgramm -->
<g id="edge5" class="edge">
<title>NamedEntityMixin&#45;&gt;SubProgramm</title>
<path fill="none" stroke="black" stroke-width="0.5" d="M105.08,-19.03C124.83,-24.1 149.21,-30.37 169.69,-35.63"/>
<polygon fill="black" stroke="black" stroke-width="0.5" points="169.26,-37.33 174.54,-36.88 170.13,-33.94 169.26,-37.33"/>
</g>
<!-- Procedure&#45;&gt;Procedure -->
<g id="edge1" class="edge">
<title>Procedure&#45;&gt;Procedure</title>
<path fill="none" stroke="black" stroke-width="0.5" d="M307.55,-74.08C299.3,-82.73 304.95,-92 324.5,-92 340.69,-92 347.35,-85.65 344.48,-78.55"/>
<polygon fill="black" stroke="black" stroke-width="0.5" points="345.71,-77.24 341.45,-74.08 342.81,-79.2 345.71,-77.24"/>
</g>
<!-- SubProgramm&#45;&gt;Procedure -->
<g id="edge3" class="edge">
<title>SubProgramm&#45;&gt;Procedure</title>
<path fill="none" stroke="black" stroke-width="0.5" d="M256.02,-53.41C266.19,-55.08 276.98,-56.85 286.88,-58.48"/>
<polygon fill="black" stroke="black" stroke-width="0.5" points="286.75,-60.23 291.97,-59.32 287.32,-56.78 286.75,-60.23"/>
</g>
</g>
</svg>
