<?xml version="1.0" encoding="UTF-8" standalone="no"?>
<!DOCTYPE svg PUBLIC "-//W3C//DTD SVG 1.1//EN"
 "http://www.w3.org/Graphics/SVG/1.1/DTD/svg11.dtd">
<!-- Generated by graphviz version 2.43.0 (0)
 -->
<!-- Title: inheritance2919bf919a Pages: 1 -->
<svg width="282pt" height="64pt"
 viewBox="0.00 0.00 282.00 64.00" xmlns="http://www.w3.org/2000/svg" xmlns:xlink="http://www.w3.org/1999/xlink">
<g id="graph0" class="graph" transform="scale(1 1) rotate(0) translate(4 60)">
<title>inheritance2919bf919a</title>
<!-- AllName -->
<g id="node1" class="node">
<title>AllName</title>
<g id="a_node1"><a xlink:href="../pyGHDL/pyGHDL.dom.Names.html#pyGHDL.dom.Names.AllName" xlink:title="The *all name* represents the reserved word ``all`` used in names." target="_top">
<polygon fill="white" stroke="#1e90ff" points="274,-37 215,-37 215,-18 274,-18 274,-37"/>
<text text-anchor="middle" x="244.5" y="-25" font-family="Vera Sans, DejaVu Sans, Liberation Sans, Arial, Helvetica, sans" font-size="10.00">AllName</text>
</a>
</g>
</g>
<!-- AllName&#45;&gt;AllName -->
<g id="edge1" class="edge">
<title>AllName&#45;&gt;AllName</title>
<path fill="none" stroke="black" stroke-width="0.5" d="M229.4,-37.08C222.05,-45.73 227.08,-55 244.5,-55 258.92,-55 264.86,-48.65 262.3,-41.55"/>
<polygon fill="black" stroke="black" stroke-width="0.5" points="263.68,-40.46 259.6,-37.08 260.69,-42.27 263.68,-40.46"/>
</g>
<!-- DOMMixin -->
<g id="node2" class="node">
<title>DOMMixin</title>
<g id="a_node2"><a xlink:href="../pyGHDL.dom.html#pyGHDL.dom.DOMMixin" xlink:title="DOMMixin" target="_top">
<polygon fill="white" stroke="#1e90ff" points="179,-56 111,-56 111,-37 179,-37 179,-56"/>
<text text-anchor="middle" x="145" y="-44" font-family="Vera Sans, DejaVu Sans, Liberation Sans, Arial, Helvetica, sans" font-size="10.00">DOMMixin</text>
</a>
</g>
</g>
<!-- DOMMixin&#45;&gt;AllName -->
<g id="edge2" class="edge">
<title>DOMMixin&#45;&gt;AllName</title>
<path fill="none" stroke="black" stroke-width="0.5" d="M179.01,-40.07C188.89,-38.14 199.73,-36.03 209.67,-34.09"/>
<polygon fill="black" stroke="black" stroke-width="0.5" points="210.19,-35.77 214.77,-33.1 209.52,-32.34 210.19,-35.77"/>
</g>
<!-- Name -->
<g id="node3" class="node">
<title>Name</title>
<g id="a_node3"><a xlink:title="``Name`` is the base&#45;class for all *names* in the VHDL language model.">
<polygon fill="white" stroke="#1e90ff" points="172,-19 118,-19 118,0 172,0 172,-19"/>
<text text-anchor="middle" x="145" y="-7" font-family="Vera Sans, DejaVu Sans, Liberation Sans, Arial, Helvetica, sans" font-size="10.00">Name</text>
</a>
</g>
</g>
<!-- Name&#45;&gt;AllName -->
<g id="edge3" class="edge">
<title>Name&#45;&gt;AllName</title>
<path fill="none" stroke="black" stroke-width="0.5" d="M172.13,-14.32C183.68,-16.46 197.4,-18.99 209.72,-21.26"/>
<polygon fill="black" stroke="black" stroke-width="0.5" points="209.66,-23.03 214.9,-22.22 210.3,-19.59 209.66,-23.03"/>
</g>
<!-- ModelEntity -->
<g id="node4" class="node">
<title>ModelEntity</title>
<g id="a_node4"><a xlink:title="``ModelEntity`` is the base&#45;class for all classes in the VHDL language model, except for mixin classes (see multiple">
<polygon fill="white" stroke="#1e90ff" points="75,-19 0,-19 0,0 75,0 75,-19"/>
<text text-anchor="middle" x="37.5" y="-7" font-family="Vera Sans, DejaVu Sans, Liberation Sans, Arial, Helvetica, sans" font-size="10.00">ModelEntity</text>
</a>
</g>
</g>
<!-- ModelEntity&#45;&gt;Name -->
<g id="edge4" class="edge">
<title>ModelEntity&#45;&gt;Name</title>
<path fill="none" stroke="black" stroke-width="0.5" d="M75.1,-9.5C87.28,-9.5 100.73,-9.5 112.49,-9.5"/>
<polygon fill="black" stroke="black" stroke-width="0.5" points="112.77,-11.25 117.77,-9.5 112.77,-7.75 112.77,-11.25"/>
</g>
</g>
</svg>
