<?xml version="1.0" encoding="UTF-8" standalone="no"?>
<!DOCTYPE svg PUBLIC "-//W3C//DTD SVG 1.1//EN"
 "http://www.w3.org/Graphics/SVG/1.1/DTD/svg11.dtd">
<!-- Generated by graphviz version 2.43.0 (0)
 -->
<!-- Title: inheritancee5a4c3d267 Pages: 1 -->
<svg width="523pt" height="101pt"
 viewBox="0.00 0.00 523.00 101.00" xmlns="http://www.w3.org/2000/svg" xmlns:xlink="http://www.w3.org/1999/xlink">
<g id="graph0" class="graph" transform="scale(1 1) rotate(0) translate(4 97)">
<title>inheritancee5a4c3d267</title>
<!-- DOMMixin -->
<g id="node1" class="node">
<title>DOMMixin</title>
<g id="a_node1"><a xlink:href="../pyGHDL.dom.html#pyGHDL.dom.DOMMixin" xlink:title="DOMMixin" target="_top">
<polygon fill="white" stroke="#1e90ff" points="277,-93 209,-93 209,-74 277,-74 277,-93"/>
<text text-anchor="middle" x="243" y="-81" font-family="Vera Sans, DejaVu Sans, Liberation Sans, Arial, Helvetica, sans" font-size="10.00">DOMMixin</text>
</a>
</g>
</g>
<!-- IndexedObjectOrFunctionCallSymbol -->
<g id="node4" class="node">
<title>IndexedObjectOrFunctionCallSymbol</title>
<g id="a_node4"><a xlink:href="../pyGHDL/pyGHDL.dom.Symbol.html#pyGHDL.dom.Symbol.IndexedObjectOrFunctionCallSymbol" xlink:title="A configuration reference in a configuration instantiation." target="_top">
<polygon fill="white" stroke="#1e90ff" points="515,-56 321,-56 321,-37 515,-37 515,-56"/>
<text text-anchor="middle" x="418" y="-44" font-family="Vera Sans, DejaVu Sans, Liberation Sans, Arial, Helvetica, sans" font-size="10.00">IndexedObjectOrFunctionCallSymbol</text>
</a>
</g>
</g>
<!-- DOMMixin&#45;&gt;IndexedObjectOrFunctionCallSymbol -->
<g id="edge3" class="edge">
<title>DOMMixin&#45;&gt;IndexedObjectOrFunctionCallSymbol</title>
<path fill="none" stroke="black" stroke-width="0.5" d="M277.36,-76.37C302.88,-70.91 338.49,-63.29 367.35,-57.12"/>
<polygon fill="black" stroke="black" stroke-width="0.5" points="367.77,-58.82 372.29,-56.06 367.04,-55.4 367.77,-58.82"/>
</g>
<!-- IndexedName -->
<g id="node2" class="node">
<title>IndexedName</title>
<polygon fill="white" stroke="#1e90ff" points="285,-56 201,-56 201,-37 285,-37 285,-56"/>
<text text-anchor="middle" x="243" y="-44" font-family="Vera Sans, DejaVu Sans, Liberation Sans, Arial, Helvetica, sans" font-size="10.00">IndexedName</text>
</g>
<!-- IndexedName&#45;&gt;IndexedObjectOrFunctionCallSymbol -->
<g id="edge4" class="edge">
<title>IndexedName&#45;&gt;IndexedObjectOrFunctionCallSymbol</title>
<path fill="none" stroke="black" stroke-width="0.5" d="M285.44,-46.5C294.72,-46.5 304.95,-46.5 315.5,-46.5"/>
<polygon fill="black" stroke="black" stroke-width="0.5" points="315.69,-48.25 320.69,-46.5 315.69,-44.75 315.69,-48.25"/>
</g>
<!-- Name -->
<g id="node3" class="node">
<title>Name</title>
<g id="a_node3"><a xlink:title="``Name`` is the base&#45;class for all *names* in the VHDL language model.">
<polygon fill="white" stroke="#1e90ff" points="165,-56 111,-56 111,-37 165,-37 165,-56"/>
<text text-anchor="middle" x="138" y="-44" font-family="Vera Sans, DejaVu Sans, Liberation Sans, Arial, Helvetica, sans" font-size="10.00">Name</text>
</a>
</g>
</g>
<!-- Name&#45;&gt;IndexedName -->
<g id="edge1" class="edge">
<title>Name&#45;&gt;IndexedName</title>
<path fill="none" stroke="black" stroke-width="0.5" d="M165.26,-46.5C174.58,-46.5 185.37,-46.5 195.86,-46.5"/>
<polygon fill="black" stroke="black" stroke-width="0.5" points="195.97,-48.25 200.97,-46.5 195.97,-44.75 195.97,-48.25"/>
</g>
<!-- IndexedObjectOrFunctionCallSymbol&#45;&gt;IndexedObjectOrFunctionCallSymbol -->
<g id="edge2" class="edge">
<title>IndexedObjectOrFunctionCallSymbol&#45;&gt;IndexedObjectOrFunctionCallSymbol</title>
<path fill="none" stroke="black" stroke-width="0.5" d="M391.18,-56.08C378.13,-64.73 387.07,-74 418,-74 445.06,-74 455.29,-66.91 448.68,-59.34"/>
<polygon fill="black" stroke="black" stroke-width="0.5" points="449.77,-57.97 444.82,-56.08 447.51,-60.64 449.77,-57.97"/>
</g>
<!-- Symbol -->
<g id="node5" class="node">
<title>Symbol</title>
<polygon fill="white" stroke="#1e90ff" points="270,-19 216,-19 216,0 270,0 270,-19"/>
<text text-anchor="middle" x="243" y="-7" font-family="Vera Sans, DejaVu Sans, Liberation Sans, Arial, Helvetica, sans" font-size="10.00">Symbol</text>
</g>
<!-- Symbol&#45;&gt;IndexedObjectOrFunctionCallSymbol -->
<g id="edge5" class="edge">
<title>Symbol&#45;&gt;IndexedObjectOrFunctionCallSymbol</title>
<path fill="none" stroke="black" stroke-width="0.5" d="M270.27,-15.12C295.94,-20.61 335.64,-29.1 367.27,-35.86"/>
<polygon fill="black" stroke="black" stroke-width="0.5" points="367.02,-37.6 372.28,-36.93 367.75,-34.18 367.02,-37.6"/>
</g>
<!-- ModelEntity -->
<g id="node6" class="node">
<title>ModelEntity</title>
<g id="a_node6"><a xlink:title="``ModelEntity`` is the base&#45;class for all classes in the VHDL language model, except for mixin classes (see multiple">
<polygon fill="white" stroke="#1e90ff" points="75,-56 0,-56 0,-37 75,-37 75,-56"/>
<text text-anchor="middle" x="37.5" y="-44" font-family="Vera Sans, DejaVu Sans, Liberation Sans, Arial, Helvetica, sans" font-size="10.00">ModelEntity</text>
</a>
</g>
</g>
<!-- ModelEntity&#45;&gt;Name -->
<g id="edge6" class="edge">
<title>ModelEntity&#45;&gt;Name</title>
<path fill="none" stroke="black" stroke-width="0.5" d="M75.18,-46.5C85.15,-46.5 95.85,-46.5 105.51,-46.5"/>
<polygon fill="black" stroke="black" stroke-width="0.5" points="105.75,-48.25 110.75,-46.5 105.75,-44.75 105.75,-48.25"/>
</g>
</g>
</svg>
