<?xml version="1.0" encoding="UTF-8" standalone="no"?>
<!DOCTYPE svg PUBLIC "-//W3C//DTD SVG 1.1//EN"
 "http://www.w3.org/Graphics/SVG/1.1/DTD/svg11.dtd">
<!-- Generated by graphviz version 2.43.0 (0)
 -->
<!-- Title: inheritance0d7d04db9b Pages: 1 -->
<svg width="476pt" height="101pt"
 viewBox="0.00 0.00 476.00 101.00" xmlns="http://www.w3.org/2000/svg" xmlns:xlink="http://www.w3.org/1999/xlink">
<g id="graph0" class="graph" transform="scale(1 1) rotate(0) translate(4 97)">
<title>inheritance0d7d04db9b</title>
<!-- DOMMixin -->
<g id="node1" class="node">
<title>DOMMixin</title>
<g id="a_node1"><a xlink:href="../pyGHDL.dom.html#pyGHDL.dom.DOMMixin" xlink:title="DOMMixin" target="_top">
<polygon fill="white" stroke="#1e90ff" points="279,-93 211,-93 211,-74 279,-74 279,-93"/>
<text text-anchor="middle" x="245" y="-81" font-family="Vera Sans, DejaVu Sans, Liberation Sans, Arial, Helvetica, sans" font-size="10.00">DOMMixin</text>
</a>
</g>
</g>
<!-- EntityInstantiationSymbol -->
<g id="node2" class="node">
<title>EntityInstantiationSymbol</title>
<g id="a_node2"><a xlink:href="../pyGHDL/pyGHDL.dom.Symbol.html#pyGHDL.dom.Symbol.EntityInstantiationSymbol" xlink:title="An entity reference in a direct entity instantiation." target="_top">
<polygon fill="white" stroke="#1e90ff" points="468,-56 325,-56 325,-37 468,-37 468,-56"/>
<text text-anchor="middle" x="396.5" y="-44" font-family="Vera Sans, DejaVu Sans, Liberation Sans, Arial, Helvetica, sans" font-size="10.00">EntityInstantiationSymbol</text>
</a>
</g>
</g>
<!-- DOMMixin&#45;&gt;EntityInstantiationSymbol -->
<g id="edge2" class="edge">
<title>DOMMixin&#45;&gt;EntityInstantiationSymbol</title>
<path fill="none" stroke="black" stroke-width="0.5" d="M279.18,-75.29C300.62,-69.98 328.76,-63.02 351.99,-57.27"/>
<polygon fill="black" stroke="black" stroke-width="0.5" points="352.43,-58.96 356.86,-56.06 351.59,-55.56 352.43,-58.96"/>
</g>
<!-- EntityInstantiationSymbol&#45;&gt;EntityInstantiationSymbol -->
<g id="edge1" class="edge">
<title>EntityInstantiationSymbol&#45;&gt;EntityInstantiationSymbol</title>
<path fill="none" stroke="black" stroke-width="0.5" d="M373.38,-56.08C362.13,-64.73 369.84,-74 396.5,-74 419.41,-74 428.32,-67.16 423.24,-59.74"/>
<polygon fill="black" stroke="black" stroke-width="0.5" points="424.38,-58.41 419.62,-56.08 421.89,-60.87 424.38,-58.41"/>
</g>
<!-- SelectedName -->
<g id="node3" class="node">
<title>SelectedName</title>
<g id="a_node3"><a xlink:title="A *selected name* is a name made from multiple words separated by a dot (``.``).">
<polygon fill="white" stroke="#1e90ff" points="289,-56 201,-56 201,-37 289,-37 289,-56"/>
<text text-anchor="middle" x="245" y="-44" font-family="Vera Sans, DejaVu Sans, Liberation Sans, Arial, Helvetica, sans" font-size="10.00">SelectedName</text>
</a>
</g>
</g>
<!-- SelectedName&#45;&gt;EntityInstantiationSymbol -->
<g id="edge3" class="edge">
<title>SelectedName&#45;&gt;EntityInstantiationSymbol</title>
<path fill="none" stroke="black" stroke-width="0.5" d="M289.24,-46.5C298.8,-46.5 309.2,-46.5 319.63,-46.5"/>
<polygon fill="black" stroke="black" stroke-width="0.5" points="319.75,-48.25 324.75,-46.5 319.75,-44.75 319.75,-48.25"/>
</g>
<!-- Symbol -->
<g id="node4" class="node">
<title>Symbol</title>
<polygon fill="white" stroke="#1e90ff" points="272,-19 218,-19 218,0 272,0 272,-19"/>
<text text-anchor="middle" x="245" y="-7" font-family="Vera Sans, DejaVu Sans, Liberation Sans, Arial, Helvetica, sans" font-size="10.00">Symbol</text>
</g>
<!-- Symbol&#45;&gt;EntityInstantiationSymbol -->
<g id="edge4" class="edge">
<title>Symbol&#45;&gt;EntityInstantiationSymbol</title>
<path fill="none" stroke="black" stroke-width="0.5" d="M272.04,-15.94C294,-21.38 325.9,-29.27 351.77,-35.68"/>
<polygon fill="black" stroke="black" stroke-width="0.5" points="351.58,-37.43 356.85,-36.94 352.42,-34.04 351.58,-37.43"/>
</g>
<!-- ModelEntity -->
<g id="node5" class="node">
<title>ModelEntity</title>
<g id="a_node5"><a xlink:title="``ModelEntity`` is the base&#45;class for all classes in the VHDL language model, except for mixin classes (see multiple">
<polygon fill="white" stroke="#1e90ff" points="75,-56 0,-56 0,-37 75,-37 75,-56"/>
<text text-anchor="middle" x="37.5" y="-44" font-family="Vera Sans, DejaVu Sans, Liberation Sans, Arial, Helvetica, sans" font-size="10.00">ModelEntity</text>
</a>
</g>
</g>
<!-- Name -->
<g id="node6" class="node">
<title>Name</title>
<g id="a_node6"><a xlink:title="``Name`` is the base&#45;class for all *names* in the VHDL language model.">
<polygon fill="white" stroke="#1e90ff" points="165,-56 111,-56 111,-37 165,-37 165,-56"/>
<text text-anchor="middle" x="138" y="-44" font-family="Vera Sans, DejaVu Sans, Liberation Sans, Arial, Helvetica, sans" font-size="10.00">Name</text>
</a>
</g>
</g>
<!-- ModelEntity&#45;&gt;Name -->
<g id="edge5" class="edge">
<title>ModelEntity&#45;&gt;Name</title>
<path fill="none" stroke="black" stroke-width="0.5" d="M75.18,-46.5C85.15,-46.5 95.85,-46.5 105.51,-46.5"/>
<polygon fill="black" stroke="black" stroke-width="0.5" points="105.75,-48.25 110.75,-46.5 105.75,-44.75 105.75,-48.25"/>
</g>
<!-- Name&#45;&gt;SelectedName -->
<g id="edge6" class="edge">
<title>Name&#45;&gt;SelectedName</title>
<path fill="none" stroke="black" stroke-width="0.5" d="M165.23,-46.5C174.52,-46.5 185.29,-46.5 195.83,-46.5"/>
<polygon fill="black" stroke="black" stroke-width="0.5" points="195.97,-48.25 200.97,-46.5 195.97,-44.75 195.97,-48.25"/>
</g>
</g>
</svg>
